<?xml version="1.0" encoding="UTF-8"?>
<svg id="Layer_2"
  xmlns="http://www.w3.org/2000/svg" viewBox="0 0 1597.58 1080.79" fill="none">
    <path class="cls-1" fill="#26392f" d="M1594.4,822.97l-122.54-223.01c32.67-11.35,56.01-26.07,65.55-42.58,4.51-7.82,4.34-17.49-.17-25.3l-100.29-173.71c14.16-4.61,25.71-9.99,33.91-15.92,10.51-7.58,13.49-21.94,7.11-33.22L1308.79,10.19l-169.15,299.03c-6.38,11.28-3.4,25.63,7.1,33.22,8.19,5.92,19.73,11.29,33.87,15.9l-100.31,173.73c-4.5,7.79-4.69,17.43-.21,25.23,9.42,16.38,32.43,31.01,64.65,42.33l-97.73,177.84-66.25-120.57c36.39-12.64,62.39-29.04,73.01-47.43,5.02-8.71,4.84-19.48-.19-28.18l-111.71-193.49c15.77-5.14,28.64-11.13,37.77-17.73,11.7-8.45,15.02-24.44,7.92-37L799.14,0l-188.41,333.08c-7.1,12.56-3.79,28.55,7.91,37,9.13,6.59,21.97,12.58,37.73,17.72l-111.73,193.51c-5.01,8.68-5.23,19.42-.23,28.11,10.49,18.25,36.12,34.54,72.01,47.14l-66.16,120.39-97.25-176.98c32.67-11.35,56.01-26.07,65.55-42.58,4.51-7.82,4.34-17.49-.17-25.3l-100.29-173.71c14.16-4.61,25.71-9.99,33.91-15.92,10.51-7.58,13.49-21.94,7.11-33.22L289.95,10.19,120.8,309.23c-6.38,11.28-3.4,25.63,7.1,33.22,8.19,5.92,19.73,11.29,33.87,15.9l-100.31,173.73c-4.5,7.79-4.69,17.43-.21,25.23,9.42,16.38,32.43,31.01,64.65,42.33L3.18,822.97c-4.44,8.08-4.23,17.95,.65,25.78,23.05,36.98,118.66,65.91,238.95,71.93v13.82c0,25.41,20.6,46.02,46.02,46.02h0c25.41,0,46.02-20.6,46.02-46.02v-13.76c56.56-2.76,107.71-10.58,148.49-21.92l-3.57,6.5c-4.95,9-4.71,19.99,.72,28.71,25.68,41.19,132.17,73.41,266.15,80.12v15.4c0,28.31,22.95,51.25,51.25,51.25h0c28.31,0,51.25-22.95,51.25-51.25v-15.33c134.55-6.56,241.63-38.85,267.42-80.15,5.45-8.72,5.69-19.73,.74-28.74l-3.68-6.7c40.62,11.37,91.61,19.24,148.03,22.06v13.82c0,25.41,20.6,46.02,46.02,46.02h0c25.41,0,46.02-20.6,46.02-46.02v-13.76c120.8-5.89,216.93-34.88,240.09-71.96,4.89-7.83,5.11-17.71,.66-25.8Z"/>
</svg>