<?xml version="1.0" encoding="UTF-8"?><svg id="Layer_2" xmlns="http://www.w3.org/2000/svg" xmlns:xlink="http://www.w3.org/1999/xlink" viewBox="0 0 1000 655.72"><defs><style>.cls-1{fill:#2c8b29;}.cls-2{fill:url(#radial-gradient);}</style><radialGradient id="radial-gradient" cx="150" cy="58.64" fx="150" fy="58.64" r="936.75" gradientTransform="translate(0 .49) scale(.99 .96)" gradientUnits="userSpaceOnUse"><stop offset="0" stop-color="#26392f"/><stop offset="1" stop-color="#2c8b29"/></radialGradient></defs><g id="Layer_1-2"><g><path class="cls-1" d="M0,257.13v207.14c0,28.44,18.62,53.54,45.84,61.78l402.98,122.08c33.37,10.11,68.99,10.11,102.36,0l402.98-122.08c27.22-8.25,45.84-33.34,45.84-61.78v-207.14c0-28.44-18.62-53.54-45.84-61.78l-402.98-122.08c-33.37-10.11-68.99-10.11-102.36,0L45.84,195.35C18.62,203.59,0,228.69,0,257.13Z"/><path class="cls-2" d="M0,191.44v207.14c0,28.44,18.62,53.54,45.84,61.78l402.98,122.08c33.37,10.11,68.99,10.11,102.36,0l402.98-122.08c27.22-8.25,45.84-33.34,45.84-61.78V191.44c0-28.44-18.62-53.54-45.84-61.78L551.18,7.58c-33.37-10.11-68.99-10.11-102.36,0L45.84,129.66C18.62,137.91,0,163,0,191.44Z"/></g></g></svg>