<?xml version="1.0" encoding="UTF-8"?><svg id="Layer_2" xmlns="http://www.w3.org/2000/svg" viewBox="0 0 1000 655.72"><defs><style>.cls-1{fill:#707070;}</style></defs><g id="Layer_1-2"><path class="cls-1" d="M499.99,40c13.42,0,26.73,1.97,39.58,5.86l402.98,122.08c10.43,3.16,17.44,12.61,17.44,23.51V464.27c0,10.9-7.01,20.35-17.44,23.51l-402.99,122.08c-12.84,3.89-26.16,5.86-39.58,5.86s-26.73-1.97-39.58-5.86L57.44,487.78c-10.43-3.16-17.44-12.61-17.44-23.51V191.45c0-10.9,7.01-20.35,17.44-23.51L460.42,45.86c12.84-3.89,26.16-5.86,39.58-5.86m0-40c-17.24,0-34.49,2.53-51.18,7.58L45.84,129.66C18.61,137.91,0,163,0,191.45V464.27c0,28.45,18.61,53.54,45.84,61.79l402.98,122.08c16.69,5.05,33.93,7.58,51.18,7.58s34.49-2.53,51.18-7.58l402.99-122.08c27.22-8.25,45.84-33.34,45.84-61.79V191.45c0-28.45-18.62-53.54-45.84-61.79L551.17,7.58c-16.69-5.06-33.93-7.58-51.18-7.58h0Z"/><path class="cls-1" d="M631.85,327.86c0,11.21-9.08,20.29-20.28,20.29h-91.28v91.28c0,11.21-9.08,20.28-20.28,20.28s-20.28-9.06-20.28-20.28v-91.28h-91.28c-11.2,0-20.28-9.08-20.28-20.29s9.08-20.28,20.28-20.28h91.28v-91.28c0-11.21,9.08-20.29,20.28-20.29s20.28,9.08,20.28,20.29v91.28h91.28c11.22,0,20.28,9.06,20.28,20.28Z"/></g></svg>