<svg xmlns="http://www.w3.org/2000/svg" xmlns:xlink="http://www.w3.org/1999/xlink" width="79.677" height="88.813" viewBox="0 0 79.677 88.813">
  <defs>
    <linearGradient id="linear-gradient" x1="0.5" x2="0.5" y2="0.656" gradientUnits="objectBoundingBox">
      <stop offset="0" stop-color="#bde73d"/>
      <stop offset="1" stop-color="#9ab12b"/>
    </linearGradient>
  </defs>
  <g id="Bergahorn" transform="translate(0.02 0.064)">
    <path id="Path_92" data-name="Path 92" d="M232.017,449.83h-5.059l-2.237,8.862H234.4Z" transform="translate(-187.325 -371.64)" fill="#622f22" fill-rule="evenodd"/>
    <path id="Path_93" data-name="Path 93" d="M45.06,78.867c.061-.4.774-.012.892-.432,0-.471,1.241-1.606,1.727-.716.3.056.214-.166.207-.306.342-.952.539.108.7.542.965-.126,2.635-.448,2.588,1.409.7-1.15,2.278.334,2.753.262,2.118-.273,3.4-2.044,5.753-1.444,1.478-1.081.495-1.633,2.618-1.19.724-.9,1.333.236,1.982.255-.822-1.029.111-2.6,1.268-1.682.325,1.15,2.726.446,1.328.073-.18-.728,2.136-.434,2.53.278,1.185-.005-.288-.852.128-1.108.31-1.207.273-2.579,1.655-1.93,1.727-.642,2.141.511,1.557-1.213,1.609-1.312-.394-3.155.623-4.538-.8-.9.773-.712,1.138-.7-.182.759,1.31.593,1.409.171,0-.59.022-1.041-.434-1.431.31-.315.928-.6.231-.917-1.177-2.285-.569-.353-1.653-1.381-.436-.486,1.323-1.5.276-1.519-.918.549-1.584-1.466-.779-1.963-.887.2-1.328-.532-1.872-.723-1.522,1.741-2.266.163-2.576-1.5-.362-.268-2.372-1.829-.779-1.78.769-.366,1.588-2.28,3.019-1.176.845.542,1.377,2.662,1.236.492.993-.749.5-1.342,1.071-2.254-2.887-6.575,2.712-2.63,2.163-7.094-1.015-.074-1,1.078-1.45,1.463-.379-.2.113-.591.138-.866,1.091-.749-.325-2.24.665-2.782.165.411.407,1.7.825,1.853.4-1.032-1.232-2.705.279-3.51-.95-.889-1.461-2.285-2.524-2.959-1.923-.194-1.8-.408-2.529-2.362-2.025.044-.323-1.79-1.466-2.07-1.115.474-.423-.376-.118-.952.035.371.071.478.29.483a.963.963,0,0,1,.747-.889c-.253-.555-.212-.763.4-.581.052-.511.259-.875-.407-.938,1.254.019,1.3-1.914,1.95-2.184.4-.889,1.428-1.031,2.227-1.239.621-.313.747-1,1.461-.7,1.6-.525-.062-2.24,2.141-2.459-.375-1.186,2.1-1.806-.076-1.029-.648.231-.848-.637-.062-.208.66-.336.369-.8,1.194-.2,1-4.928-3.163-.794-2.108-4.265-.768-.278-.259.712-.761.922-.759.212-.226,1-.758,1.433s-.35-.385-.133-.628c.281-.7-.818-1.024-.973-1.678-.114-.684-1.409-.8-1.3-1.3.808-.345.088-.5-.386-.408.626-.663.194-1.846,1.32-2.109,1.379-.644-2.153-.871-.921-2.334-.86-.136-2.426.007-2.212,1.246-.409.689-1.138-.486-.63-.924.7-.661-.614-.56-.458-1.183.128-.828.822-.03,1.231.154.9-1.528-1.64-.719-2.071-1.757.918-3.3-1.633.238-.141-4.814A.982.982,0,0,1,67.961,5.2c-.431.59-.589.192-.857-.215.36-.257.8-.213.833-.768.177-.931-1.54-.1-1.976-.621-.737-.623.067-1.33-.737-1.851-.636.411-.687-.5-.232-.6C65.931.017,63.23,2.4,63.195.318c-.017-1.059-.4.437-1.054.259-.5.079-.668-.563-1.114-.367,1.094.609-.2,1.043-.232,1.934-1.131.191-1.515,1.655-2.593-.133-1.025,1.377-2.032-.282-3.083-.752-.611-2.042-1.343-.992-2.8-.868-1.818,1.741-1.182-1.57-2.524,1.7,1.98,1.962,1.69-.124,3.052.751.178.339-1.806.392-2.248.332-.926-.4-.557.751-1.128,1.006-.9.276-2.615,1.176-2.28-.555-.045-.728-.916-.527-1.3-.789.872-.88-.87-1.269-1.471-1.423-.439-.121-.527.339-.648.7-.8-.38-1.268-.719-1.9-1.017-1.545,1.279-1.246-.67-3.064.324.13,1.223-.641-.161-.736.871-.65.649-2.45.045-2.748.728.879,1.608-1.205,1.463-.7,2.546-.567-.04-1.1-.357-1.537.166-.527-.231-1.281-.98-1.574-.007-.244-.3-.505-1.288-.936-.719.811,1.692-1.482.838-2.328.835-1.027.591-2.726,2.936-3.732,2.387-.492-.35-.791.686-1.379.287-.369-.213-.1.427-.19.619-.625.588-1.566-.079-1.579,1.5-.108.611-.239-.31-.5-.157A3.813,3.813,0,0,1,19.6,13.825c-.87.612-4.317.94-1.865,1.62-.234.943.953,2.051.465,2.858-.6,1.083.79.695-1.044,1.475.419,1.193-1.1,1.391-1.552,2.07-.286.621-.495,2.306-1.81,1.332-.086.709-1.128,3.7-2.684,1.1-.013.747,1.418,2.044-.266,2.4,1.66.231.2,2.684-.646,1.1,1.118,1.12-.224,1.664-.781,2.261-.727.569-.791-1.146-1.483-.908-1.431.514-.042.852-.448,1.169-1.813-.786-2.495,1.253-3.847,1.717.552.691,1.29-.1,1.827.679,1.052,1.37-1.53,2.452-2.463,2.8A3.029,3.029,0,0,0-.02,36.583c.779.572,1.029,1.29,1.714,1.984.377,1-1.394,1.234.14,1.295,2.668,1.526.7.29.862,2.534.311-.248.884-1.052.995-.08-.13.327-.71.423-.428.852.236.467-.222,2.434-1.044,2.431-1.434,1.47-.141,2.95-1.354,4-.187.04,1.99,1.687,1.532,2.971,1.684-.507,1.806,1.37,1.034,2.422.453.815,1.875-.219,1.712.91.825-1.06,2.163.049,2.677-.812.189-.269.178-.315-.057-.556-.5-.476.832.231.86-.434,1.071-1.169-.673,1.781.513,1.372,1.352-.18.146,1.118.778,1.326.657-.345.889-.1,1.242.5.522-1.157,3.231-2.249,2.867.075-.453.259-1.173-.49-1.576.257-.747-.049-.519.458-.786.9-.311.465-.914.227-.968.9-.352.705-.727,2.632-1.52,2.611-1.423-.488.114,1.353-1.244,1.622-2.567.546.1,2.614-2.337,3.92,3.482,2.133.187,2.177,1.258,3.965.552-.577.588-1.592,1.778-1.4.264.451-.519.5-.306,1.062.022.227.253.534-.072.632-.938.15-1.054.85-1.527,1.645.377.009.953-.378,1.1-.121-.774.224-.418.124-.02.67,1.69.156,1.717.29,2.13,2.25-.03,1.34.263-.131.753-.257.682.752,3.15-1.535,2.2.3-.012.173,1.389-.325,1.493.562.465-.367,2.049-1.347,2.369-.429-2.025,3.806,2.249-1.284,3.165.427,3.288-2.786-3.1-2.018,2.088-4.235.673.437,2.19-.136.586.528a6.481,6.481,0,0,0-1.057,2.772c-.059.492-.877.81-.633,1.293,1.384-1.465,1.66,1.995,2.475.675.3-.152.926-.542,1.2-.245.7,2.415,1.8.854,3.264.187.594-.159.114-2.221,1.034-1.239-.133,1.435,1.416-.033.556,1.2,1.269-1.181,1.741,1.99,2.012,1.032-.657-.749.088-2.408.487-.8,1.037.583,1.67-.241,2.822-.635,1.448-.129.6,3,1.689.824-.081-.5.333-.514.675-.63-.005.961,1.19.254,1.391,1.256,1.2.476,3.155.058,4.525.322m12.855,9.57M4.931,49.737h0C4.941,49.723,4.936,49.741,4.931,49.737Zm5.261-6.055Zm.987,2.572s0,0,0,0S11.184,46.251,11.179,46.255Zm.9-20.828ZM10.554,70.149c-.36.257-.438.766-.874.35C9.118,69.713,12.428,68.96,10.554,70.149ZM73.572,42.114c-.045-.122.4.021.49.11C74.744,42.914,73.173,43.1,73.572,42.114ZM73.3,44.743c1.259-.593.3.791.012.455C73.3,45,72.965,44.786,73.3,44.743ZM69.262,12.118s0,.012-.005.009A.039.039,0,0,1,69.262,12.118ZM37.183,4s-.008.009-.008,0ZM35.22,6.494Zm-11.078,2.4a.005.005,0,0,1-.005.005S24.14,8.893,24.142,8.891Zm-4.185,6.155ZM17.325,76.291c0-.01.005-.014.01,0Zm45.541.311c-.182.177-.731.018-.577-.31C62.483,76.14,62.936,76.352,62.867,76.6Zm8.278-53.246Zm1.141-7.168c-.461.388-1.67.089-.705-.36C71.776,16.1,72.31,15.8,72.286,16.189Z" transform="translate(0 0)" fill-rule="evenodd" fill="url(#linear-gradient)"/>
  </g>
</svg>
