<svg xmlns="http://www.w3.org/2000/svg" xmlns:xlink="http://www.w3.org/1999/xlink" width="43.508" height="88.813" viewBox="0 0 43.508 88.813">
  <defs>
    <linearGradient id="linear-gradient" x1="0.5" x2="0.5" y2="1" gradientUnits="objectBoundingBox">
      <stop offset="0" stop-color="#789d34"/>
      <stop offset="1" stop-color="#467704"/>
    </linearGradient>
  </defs>
  <g id="Birch" transform="translate(-4.96 -0.04)">
    <path id="Path_98" data-name="Path 98" d="M143.07,378.05h2.338v32.493c0,.453-.238.82-.533.82H143.6c-.295,0-.533-.366-.533-.82V378.05Z" transform="translate(-117.688 -322.51)" fill="#d9e4e6"/>
    <path id="Path_99" data-name="Path 99" d="M23.535,56.085c.362-.095,1.146.343,1.262-.095.028-.344.5-.152.654-.464.2-.152.285-.551.671-.228.387.038.278-.844.821-.483.238.087.452.143.651-.126,1.142-.7.332,1.623,1.59.885.547-.548,1.74.944,1.7-.08-.578-.359.371-.4.127-.882-.281-1.05.985.205,1.346.081.324-.164.514.024.733.18.417.36.579.879,1.087.4.464-.161.8-.066.755-.64.372.82.229-.254.635-.53-.12,1.1.993.155,1.151.894.217.3.216-.061.332-.2.572.431.536.64.609-.216.279-.406-.205-.811-.013-1.236.322-.155.612-.433,1.015-.3.877-.1-.072-.814-.541-.855.412-.43.867-.066,1.449-.126-.541-.36-.523-.844-.656-1.285.256.363.833.131,1.03.584.086.061.391-.131.418-.208.678.449.306-.449.631-.716-.14-.482-.439-1.046.366-1.235.343.1.913-.787.282-.656-.654-.115-.36.142-.694-.437.17-.31.613.229.753-.136.27-.486-.363-.326-.239-.567.173-.812,2.681-1.228,1.686-2.185-.734-.594-.273-1.276-1.813-1.318.519-.278.2-.563.034-.873,1.511,1.82,2.916.864,1.541.482-.1-.882-.168-1.541-.925-1.988.18-.142.279-.455.6-.21.109.117.688-.04.39-.205-.715-.257.575-.649-.185-.861-.21-.05-.213-.505-.57-.3-.442-.691.632.115.761-.479.217-.4-.566-1.179-.906-.79.564-1.717-.359-2.2-1.5-.968-.25-.155.121-.638-.378-.6-.418.536,1.145,1.488.14,1.458-.112-.43-.539-.216-.244.131.294.841-.851.643-.368-.016.394-.431-.909-.406-1.111-.236-.357-.386-.712-.217-.4-.842-.18-.526.22-.529.521-.631.261.637.066.192-.378.3.024,1.007.369.3.885.858-.134-.852.672-1.344.991-1.974.629-.87-.412-.852.545-1.646-1.566-.455.551-1.13-.084-1.852-.786-.459-.208-.585-.077-1.169-.928.061-.57-.356-.083-.83-.332-.307-.712.072-.634-.287-.043-.668.386-.1.866-.55.007-.43-.4-.765-.564-1.1-.219-.2-.075-.62-.473-.672-.378-.619.411-.055.471-.386-.324-.711-.7.365-1.052-1.505.024-.781-1.04-.015-.906-.885.195.168.468-.066.585.092.227.43.51-.195.4-.377-.3-.247-.483.1-.728.161.058-.653-.724-.086-.73-.77l.018-.012c.64.137,1.771-.6,1.124-1.194.408-.612-1.489-.394-.764-.95.428.046.581.477.842.319.294-.179-.139-.493-.065-.6.495-.207-.177-.456.072-1.278-.414-.145-1.223.586-1.52.17.25-.316,1.321-.442,1.167-.833-1.106-.882.968-.888-1.248-2.3-.032-.032-.12-.117-.112-.152,1.044-.889-.877-.972-.393-1.889.046-.081.1-.222.038-.245-.4-.158-.117-.443-.149-.668a1.281,1.281,0,0,1-.306-1.3c-.612,1-.428-.468-.872-.854-1.174-.03-.189-.714-.948-.971-1.192.238.03.755-.422,1.412.588,1.366-1.041-.3-.708-.885.532-.573-.078-1.157-.535-1.556.281-.041.719.165.613-.276s-.2-.062-.44-.053c-.4-.334-.765-.5-.714-1.132-1.039.644-.731.055-1.383-.477-.548-.368-1.024.264-1.318.27-.089-.52-1.083.074-.588-.344.329.009.086-.406.524-.313.269.013.182-.356.418-.363l-.056.037.055-.027a.1.1,0,0,1,0,.018c-.92-1.395.4-3.275-.761-3.095-.637.168-.49-.519-.569-.875a.663.663,0,0,1-.906-.452c-.165-.191-.365.013-.294-.355.106.021.223.229.355.129.261-.223-.421-.994-.631-.842-.149.241-.248.086-.357-.037-.888-.261-.461-.2-.451-1.055-.6-.634-.612,1.947-1.653.841-.449-.077-.4.245-.417.52-.164.591-.6-.5-.415-.784.381-.309-.046-.569-.089-.836s-.285.072-.446.015h0c-.584-.192-.047-.7-.377-1.089-.31.222-.111.722-.5.844.139.13.332.028.434.217-1.47,1.2-.425.557-.866,1.523a2.311,2.311,0,0,1-.8-1.142c-.012-.43-.507-.514-.393-.038a1.211,1.211,0,0,0-.584,1.013c-.6.409-1.6.08-2,.842-.489-.26.433-.714-.261-.982-.315-.4-.5.945-1.393.793-.422.43.142-.581-.065-.674-.21-.14-.482.133-.61.269.841,0-.533,2.052.777,1.316-.177.3.352.443.256.694-.157.316.489.3.57.6-.316.089-.36.77-.823.324-.49.334.384.363.245.625-.464.267-.464-.36-.68-.585-.183.687-.517.123-.833.452-.313.5-.4-.313-.706-.155-.2.445.479.793.086,1.245-.1-.155-.071-.48-.284-.418-.279.08-.316-.04-.437-.219-.842-1.089-2.158.855-1.415,1.533v-.01c.032.034-.018-.013.031-.007,0,.007-.019.016-.009.021a.016.016,0,0,1-.021,0c.072.51-.808.126-.4.849-.356-.223-.7.208-1.055.247-.006-.7-.056-1.1-.563-.442.03.42.756.944-.08,1-.26.027-.239.462.015.493.186.053.126-.134.177-.21.12-.25.514-.142.359.142-.346.638.368.535.607.526.1.428.406.254.638.207.065.578-.685.165-.68.792.021.473-.845.205-.78.569.111,1.257-.919-.046.26,1.795-.675.188-.372-.725-.8-.787-.211.332-.05.9-.145,1.334-.3-.058-.185-.427-.443-.394-.171.068-.242.584.1.51.288-.035.363.1.35.359-.055.486.421.6.115,1.031-.417.04-.617.564-.979.121h0c-.037.291-.131,1.866.368,1.768.582-.442.078.586.716.606.108.452-.329.682-.235,1.09-.019.145-.146.1-.123.03.131-.42-.325-.535-.414-.849-.417-.582-.566.818-.954.863-.313.112-.281.422-.5.685-.044-.666-.479-.328-.739-.4-.524-.049-.075,1.027-.81.787-.462-.03.071.725-.7.211.482,1.31-.38,1.059-.355,1.98A.475.475,0,0,0,5.1,22.6c.056-.65-.529-.815-.87-1.192-.185.205-.4.374,0,.544.659.387.118.36-.313.284.659.628-.332.65-.052,1.505.291.743-.756.592-.538,1.044.7,1.789-.418.628-.443,1.693-.137.52.756.5.669.857-.225.663-.81,1.17-.558,1.981.148.409.389.037.548.139.14.089.38.182.052.347-.547-.035-.956.248-.4.69,0,.089-.281.139-.035.261-.326.486-.142-.344-.779-.229.5.244.214,1.016.533,1.17.309-.287.226.173.371.168-.96,1.377,1.081.508.561,1.6-.056.369-.479.149-.682.044.106-.185.038-.833-.259-.607-.291.468-1.6-.109-1.325.635-1.034.041.57,1.572-.5,1-.1-.148-.2-.257-.387-.158s.053.27-.031.389l-.013.019.012-.018c-.115,0-.319-.1-.171.168,1.058,1.149-1.315,1.2-.256,1.53.248-.161,1.253-.247.628.108-.056.049-.109.195.046.17s.256-.078.2.158c-.232.7.4.14.629.557.241.25-1.133.971.142.993.143-.35.758.171.208-.452.641-.508-1.016-1.387-.372-1.968.409-.173-.083.282.155.3.319-.1.454.143.736.225.829.109-.523.79.129,1.192.352.2-.34.533.028.659.27.066-.055.292.16.393,1.161-.8.26.164.671.4.74-.238.938.965,1.767.9.779.152-.044.64.273.978l-.527-.134c.145-.5-.217-.586-.672-.554.216-.687-.677-.9-1.18-.523-.836.5-.158-.448-.807-.347-.363-.1-.712-.5-1.1-.137-.891.49-.25.687.191,1.022-.037.712-.485,1.46.158,2.111.315-.146.462-.456.925-.326-.006,0-.007.01-.015.015.151.26-.547.23-.347.61.436.025.548-.758.971-.461.145.208-.39.368-.126.6.254.016.375-.547.591-.307.061.3.2.126.334.111.584-.013.917.8.21.858a1.211,1.211,0,0,1-1.307-.208c-.015-.4-.219-.272-.377-.21-.256.2-.357.585-.716.635.4.26-.173.579.056.851.558-.223.693.606,1.194.279.247.056-.018.671.513.4.059-.024.111.162.273.1.253-.066.16.474-.064.443-.174.059-.3-.479-.378-.195-.018.347-.688.44-.5,0-.418-.189-.39.8.072.626.474-.25.561.355.965.3a.618.618,0,0,1-.844.615c-.13-.154.227-.434-.112-.561-.292-.111-.195.425-.5.313-.151-.035-.352-.043-.4.143-.049.22.464.421.631.471.762.028.53,1.439-.149,1.652-.084.2.171.79.3,1.027.211.171-.058.27-.04.408.711.446,2.51-.025,2.042,1.248.009.83.009,2.037.9.866.6-.66.883.691,1.445.1.962-.489,2.132.121,2.91.671-.012.223-.012.222.1.236,1.028.356-.182-1.532,1.393-.357.306.257.3,0,.356-.183.136.511.824.171.4-.127-.6-.368.477-.134.672.044-.5.356.174.909-.183,1.5.759.146,1.155.592,1.61-.154.235-.053-.083-.566-.2-.637-.427.275-.617-.207-.963-.214.313-.787.708-.272,1.2-.111.347-.027.129.363.1.551.338.183.4-.324.643-.16.242.36.821.471.722,1.124.7-1.053,2.228-.511,2.712.476.211.47.957-.028,1.344.442M3.862,25.9l.012.009S3.865,25.906,3.862,25.9ZM2.746,41.708c.009.056-.006.074-.03.075C2.724,41.643,2.863,41.672,2.746,41.708ZM37.769,24.4l.018-.016ZM3.355,30.153c-.009,0-.006-.018-.012-.027A.209.209,0,0,1,3.355,30.153Z" transform="translate(5)" fill-rule="evenodd" fill="url(#linear-gradient)"/>
  </g>
</svg>
