<svg xmlns="http://www.w3.org/2000/svg" xmlns:xlink="http://www.w3.org/1999/xlink" width="22.458" height="88.812" viewBox="0 0 22.458 88.812">
  <defs>
    <linearGradient id="linear-gradient" x1="0.5" x2="0.5" y2="0.683" gradientUnits="objectBoundingBox">
      <stop offset="0" stop-color="#0e4243"/>
      <stop offset="1" stop-color="#316d33"/>
    </linearGradient>
  </defs>
  <g id="Douglasie" transform="translate(-0.038 -0.05)">
    <path id="Path_58" data-name="Path 58" d="M114.948,765.36h1.719l.445,19.742c0,.491-.759,1.01-1.25,1.01h-.138c-.491,0-1.384-.341-1.384-.831l.607-19.921Z" transform="translate(-104.137 -697.25)" fill="#302018"/>
    <path id="Path_59" data-name="Path 59" d="M12.528,68.624c-.162-.905,1.806.637,2.347,1.075s2.229,2.671,1.2.739c-.588-.933.277-.1.541.29.165.182.374-.057.212-.237-.2-.4-.75-.607-.852-1-.574-2.181,1.85,1,1.64,2.007-.309.872-.045,2.318.546.8.661.992-.39,1.238.1,2.16.341.243.954.2.769.767.281.418-.116,1.022.195,1.393,1.481-1.74-.653-4.348.182-6.188.5.3.366,2.04.956,1.988a1.171,1.171,0,0,0,.461-1.128c.546.378.366-.567.22-.829-.314-1.49,1.595.466-.522-2.421-.608-1.247-4.225-3.5-1.475-2.505-.811-.821-2.053-.885-2.892-1.648-.7-.336-.956-1.089-1.37-1.676a9.574,9.574,0,0,1,2.438,1.939c.6.123-.4-.812-.374-1.051.486-.667-.677-.889.318-1.376.214.23.8,2.079,1.234,1.349.172.1.281.534.456.187.034-1.348.81,1.257.957,1.733.381.149.215-.425.249-.64.365-.147.314.214.451.509.112.379.436.008.421.485.368.267.244,1,.673,1.171.282-.518-.369-1.21.036-1.656.189-.932-1.74-1.852-1.225-2.9,2.543,2.917,2.292,1.916.443-.687a4.488,4.488,0,0,0-.651-.815c.579-.123-.091-.7-.321-.917-.423-.619-2.124-1.024-1.725-1.735.511-.815-2.034-1.043-1.152-1.952.442.494,1.026.816,1.343,1.459.561.4-.021-.677-.229-.811-1.463-1.71-.029-.866.607.211.7.51.2-.719.157-1.028.42.542,1.147.539,1.405,1.172.94-.189.375.9,1,1.149.355-.3-.094-.955-.035-1.377.478.008,1.205,1.606,1.229.912-.074-.372-1.362-1.692-.412-1.227.482-.886-1.816-1.6-2.371-2.286-.575-.4-.126-1.369-.44-1.984.978.321,1.065,1.964,1.558,2.607.1-1.322-.05-3.266-1.451-3.933-.582-.9-1.147-2.006-2.223-2.276-.2-.23-.542-1.34.056-.968.709-.13-1.256-1.16.6-.5.021.549.711,1.711.95.607.643.42,1.486.8.757-.3,4,1.549-1.116-1.707-2.714-1.422.157-.24.4-.366.305-.734.807.568,1.156.827,1.244-.306.321-.2.516.39.8.533.483,0,.88.039,1.072.592,1.124.5-.326-1.4-.727-1.636-.338-.371.984.321,1.293.422.13-.534-2.1-1.312-2.831-1.707-1.1-.439-2.936.036-3.73-.544-.185-.53-.083-1.045.326-.309a.239.239,0,1,0,.453-.149c.542.777,1.108.963.763-.1.166-.349.888.7.994.055-.048-.505-.543-.728-.419-1.209.245.121.3.692.6.607.257-.9-1.351-1.28.215-1.065.4.351.643,1.161,1.212.714,1.527,1.994.269-.364-.084-.911,1.1-.306,1.716,2.016,2.024.777.354-.883,1.9,1.851,1.387.131a4.736,4.736,0,0,0-4.513-3.1c-.928.128-.153-1.534.331-.719.1.182.325.462.563.357.2.012.238.022.318-.165.138.064.31.247.45.094-.071-.479.266-.163.591-.362.24-.173,1.417.814,1.254.265-.755-1.09-2.317-1.717-.054-1.148C19.2,34.918,16.763,35.2,14.893,35.2c-1.107-1.059.663-.43,1.106-.373.158-.332-.99-1.187-.338-1.215.454-.012.443.433.775.512.6-.447-.961-1.049-.294-1.374.245.133,1.428,1.3,1.454.606.313-.053.421.785.794.682.191-.283-.306-.579-.359-.847.67-.134.764.881,1.177,1.057.454-.418-.257-.962-.542-1.3.633-.039.832.9,1.394.778-.133-1.391-2.729-2.362-3.841-1.583-.221.452-1.383-.929-.854-.765.427.136,1.615.754,1.477.03-.153-.287-.826-.629-.6-.94.284.167,1.349,1.773,1.2.706-.639-.47-.322-1.053.1-.259.793.362,1.209.522,1.246-.5,2.968,1.741-1.422-1.616-1.312-2.408.45.589.827.083.221-.262.368-.064.6.587.926.541.207-.556-.279-.84.743-.193.341.188.245-.3.789.027-1.161-2.826-5.4-.2-4.361-1.424.6.341.308-.387.188-.681.109.081.209.213.314.014.147.467.252.277.509.159,1.41.249.141-.607-.543-.769-.436-.411-.629-.372.02-.388.675.285.765-.263.037-.333-1.215-.37-.315-1.714.48-1.053.582.26-.267-.409-.045-.54,1.771,1.274.839-.248-.049-.969,1.619.7,2.272.106.377-.547a5.021,5.021,0,0,0-1.892.088c-.088.174-.276.02-.4-.024.278-.3-.145-.342-.3-.526.173-.068.428.168.528-.025-.261-.71.84-.149,1.355-.467,1.5-.086,1.054-.719-.21-.548-.889-.277-.5-1.175.121-1.01.5-.045.153-.715.568-.764-.118-.586.569.15.733-.3A19.265,19.265,0,0,0,15.6,16.849c-.277-.059-.456-.329-.786-.464.214-.08.482.283.642.031.151-.366-1.192-.557-.363-.519.816.655,1-.237.094-.4-.935-.572.229-.23.55-.052-.039-.82-1.738-.507-1.862-1.338-.046-.348.136-.148.266.053.868.366.147-.7-.108-.928.381.386.532-.058.38-.348.87.522.471-.393,0-.673.2-.283.333.228.593.147.367-.092.088-.658-.158-.79-.557-.443-1.651-.382-1.03-1.313.329-.1.823-.305.308-.7-.456-.29-1.882-1.476-1.113-1.064.139.269.606.23.517-.111C13.514,8.136,13,7.8,13.4,7.9c.979.967.406-.516-.269-.641-.245-.141.171-.245-.126-.477,1.576.41-.628-1.442-1.033-1.494-.057-.534,1.067-.37.706-.8-.186-.1-.172-.4-.448-.224-.391.281-.151-.711-.273-.951.491.129.16-.5.153-.732-.435-.769-.055-1.853-.571-2.527-.366.225.015,1-.269,1.356a5.639,5.639,0,0,1-.563,1.876.952.952,0,0,1,.351,1.065c-.956-.787-1.3.965-.259,1.084-.46.782-1.122.028-1.422,1.362.744.457.423-.3,1.13.735.072.7-.944.165-1.282.452-.757.544.71.927-.389,1.321a.357.357,0,0,0-.228.419c.279.484.849-.073,1.224-.092-.151.254-1.262.9-.494,1.137,1.062-.366.641.072-.037.506-.5-.343-1.208-.085-1.849.1-.886.72,1.956,0,1.276.762-.228.333-.087.47.241.636a3.828,3.828,0,0,1-1.685,1.428c1.453.575.266.293.017,1.419.2.34-.4.3-.254.606.446.4,1.223-.741,1.645-.358-.262.262-.975.177-1.008.613.282.422.927-.088,1.32-.178.568.707-1.315.6-1.462,1.386-.168.513.393.117.488-.1.286-.027.894-.269.371.158-.7.85-.647.271-1.5.083-.372-.1-1.5.738-1.224,1.159.177-.135,1.312-.824.87-.322a.18.18,0,0,0,.134.332c.753-.093.085.211.46.485-.406.368-1.056.394-1.683.75-.83.649-.081.692.446.212-.037.155-.3.267-.154.453.045.193-.267.324-.128.559C5.3,21.64,3.464,22.968,4.377,23c.9-.724.94-.975.351.167-.1.687,1.8-1.245,1.246-.215-.2.151-.151.419-.322.572-.225.432-.174.376-.668.387A4.246,4.246,0,0,0,3.1,25.072c-.2.915,1.543-.849,1.415-.143-.229.668.469-.029.634.107-.44,1.079.366.293.826-.026.7-.142.325.069.15.582.062.671.728-.334.99-.459.877-.308-.718.807-.375,1.113.376.125.591-.367.246.287-1.78-.473-3.626,2.541-1.623.8.752-.563-1.035,1.816.281.648.4-.313-.056.216.141.356.535.376,1.16-.806,1.675-.269-1.5,2.762-2.516-1.716-4.469,2.042-1.313,1.815,1.057-.6.944.159-.25.267-.565.982-.213,1.227.459-.142.258-.919.832-1.02-.026.251-.248.45.049.618.242.3.325-.074.611.129-.018.325-.977.139-1.346.347-.5-.05-2.415,1.341-1.753,1.587.951-.847,1.2-1.045.778.374.29.694.534-.685.8-.854.643-.132-.065.767.219.975.434-.1.356-.869.726-1.154.173-.124.814-.481.485-.028-.158.252-.07.374.171.442-.286.363-.787.637-1.09,1.032-.168.194.032.436.221.245,0,.806.342.354.707-.075.418-.454.142.576.581.273.418-.272.47.2.706.364.537.738.493-.766,1.056-.881C7.941,35.889,6,35.192,4.718,35.412c-1.692.371-3.156,2.474-.442.808-.079.266-.941.785-.284.91.3-.119,1.957-1.978,1.282-.784-.657.493-.52,1.37.294.658.22-.212.333.23.51.294.47-.267.665-1.514,1.075-.824-.347,1.587-2.314.847-3.481,1.382-1.129.565-3.093,2.994-.513,1.2.4.38,1.152.908,1.169-.005.464.869.675-.11,1.075-.475.417.051-.24.832-.207,1.128C4.149,39.925.371,43.649,3.18,41.9c1.416-.824.848.515,1.843-.932.455-.731.668,1.412-.515,1.337-.851-.525-1.692.322-2.516.351a.661.661,0,0,0-.9.595c-.9.2-1.675,1.977-.32.881.706.844,1.347-.324,2.087-.7.045.261-.747.942-.631,1.366.629-.455,1.106-1.052,1.766-1.475-.439.476-1.7,2.834-1.032,2.83.952-1.526,1.652-2.8,1.1-.238,1.174-1.083,1.768-2.246.807-.047.3.464.69-.869,1.107-.994,1.453-.963-.6,1.363.434,1.008a2.565,2.565,0,0,1,.669-.656.886.886,0,0,1,1.041-.132c-.127.124-.375.364-.146.525.809-.411,2.116-2.194,2.955-.941.453,2.181-2.3.773-3.421,1.335C5.47,47.762.985,46.739.443,50.328c.28.077.325-.4.727-.444.4-.541.752-1.346.954-.343.591-.261,1.132-2.283,1.394-.7C3.7,49.884,2.36,50.335,1.756,51c-.158.59.517-.012.712-.168-.34.454-2.31,2.679-1.139,2.383.233-.441.769-1.583,1.166-1.542-.174.648-1.074,1.813-.613,2.3.558-.544.443-1.731,1.256-2.045-.185.4-.266.931.3.967.86.122.588-1.75,1.032-.486.626-.1.427-1.565,1.495-1.373.4-.23.727-1.169.856-.254-.058.312-.584.489-.436.809.261.15.487-.134.682-.257.094.234-.094,1.065.341.852.313-1.1,1.811-2.467.89-.643-.264,1.338.5-.485.867-.76.921-.084-.4,2.094,1.613-.319-.2.383.276,1.651-.107,2.133-1.3.358-2.745-.132-4.3.192-2.332.8-5.817,2.358-5.631,5.234.246-.16.134-.717.509-.835.223.211-.272,1.378.377.958.592-.823.324-1.164.9-.26.282-.164.012-.618.143-.885.06.238-.1.6.181.68.389-.745.213-2.275,1.485-1.837-.084.259-.551.489-.334.751.632-.267,1.65-2.25,1.256-.506.2.846,1.325-1.458.979-.422a2.542,2.542,0,0,0-.062.95c.438.471.727-1.918.733-.38.548.9.6-.818.791-1.194.169-.3.989-.225.518.181-.468.2-.016.853-.325,1.116-.422.309-.548.8-1.18.556C5.235,57,4.139,58.345,3,59.07c-.473.684-1.609,1.365-1.683,2.137.441.115.687-1.089,1.027-.852.409.553-.657,1.236-.706,1.876.433.486,1.807-2.575,1.318-1.091-1.311,2.434-.084,2.024.514-.076.267-.245-.184.825.223.913.682-.315-.012-1.944.774-2.552.7-.888.214.317.221.808.157.125.52.94.7.542a3.585,3.585,0,0,1,.78-2.1c-.069.221.008.864.242.407.188-.4.286-.992.707-1.192a8.214,8.214,0,0,1-1.09,2.706c-1.8,1.457-4.16,2.9-4.494,5.419-.253.225-.5,1.57-.01.917a1.705,1.705,0,0,1,.387-.912,2.282,2.282,0,0,0,.245,1.325c.607.547.328-1.1.417-1.414.292-.255.154.39.466.277.146-.83,1.2-1.454,1.747-2.364-.025,1.945-2.914,3.7-2.529,5.608,1.407-1.756.316.517.15,1.587.283.417.3-.906.713-.873.646-.607.5-.846.658.1-.972.7-.774,1.861-1.352,2.726-1.258,1.715,1.22-.505,1.744-.7-.491,1.045-1.687,2.527-1.605,3.744.345-.119.367-.669.626-.928.659-.572.113,2.457.887,1.571.109-.57-.454-1.7.029-2.029.576-.746.179.023.189.54.093.445.2-.46.243-.579.052-.21.4-.178.474-.417.879-.278,1.2-1.162,1.573-1.976.247.114-.049.438.019.665.038.285.383.981.558.5.034-.282-.1-.426.2-.373.019-.17.193-1.286.266-.555.5,1.477.837,3.687.761.234.18-.217-.238-.586.066-.677.579-.508-.269-1.322-.061-2a2.26,2.26,0,0,1,.544-1.254.866.866,0,0,0,.155.775c.305.349-.038,1.7.459,1.579a8.036,8.036,0,0,1,.922-2.385M7.279,26.7c.3-.734,1.014-.415,1.659-.377-.444.515-1.041.912-1.659.377ZM5.687,33.453c-.164-.352.9-1.478,1.145-.942a3.04,3.04,0,0,0-1.145.942ZM16.868,56.8c.258.039,1.184.583.624.558C17.257,57.265,16.775,57.144,16.868,56.8Zm1.842-3.2c-1.061-.561-2.45-.422-3.416-.834-.05-.778.463-1.048.445-1.834.7.791.528,1.069.922.149.679.087,1.071,2.554,1.633,2.091-.622-2.57,1.081.72.417.428Z" transform="translate(0)" fill="url(#linear-gradient)"/>
  </g>
</svg>
