<svg xmlns="http://www.w3.org/2000/svg" xmlns:xlink="http://www.w3.org/1999/xlink" width="70.37" height="88.813" viewBox="0 0 70.37 88.813">
  <defs>
    <linearGradient id="linear-gradient" x1="0.5" x2="0.5" y2="0.62" gradientUnits="objectBoundingBox">
      <stop offset="0"/>
      <stop offset="0" stop-color="#93a13f"/>
      <stop offset="1" stop-color="#688614"/>
    </linearGradient>
  </defs>
  <g id="Esche" transform="translate(-0.008 -0.01)">
    <path id="Path_96" data-name="Path 96" d="M195.584,362.54h-2.59l-.757,23.484a.9.9,0,0,0,.9.933h2.62a.9.9,0,0,0,.9-.945Z" transform="translate(-158.084 -298.134)" fill="#5a4e12" fill-rule="evenodd"/>
    <path id="Path_97" data-name="Path 97" d="M40.671,64.877c.6.762,1.018.725,1.158-.33.549-.016,1.021.082.986.989.448-.744,1.391-.572,1.426-1.49.33.462-.126.712-.185,1.016.6-.009,1.33.462,1.16-.441-.027-.442.224-.21.4-.153-.275.034-.27.705.016.508,1.178-.249-.6.616-.083.981.84-.453.2.4.938.085,2.329-.545.86-2.259,2.821-2.661,1.33.234,1.844,3.279,3.055,1.838.677.373-.371-.737.488-.622,2.02-1.295-1.76-2.91,3.828-2.227-.053-.409-.56-.046-.567-.446a8.046,8.046,0,0,0,2.474-1.876c1.21.073-.012-.583.256-1.192.266-.883,1.181-.831.666-1.776.7.069.236-.107.218-.54.977.476.181,1.528,1.465,1.766-.082-.366-.488-.751.16-.835-.554-4.553,3.368-.346,1.377-2.753.465-1,1.071-1.766,2.323-.931-.689-2.9,1.156-1.565.385-3.4.863.041.663-1.714.226-1.449-.4-1.124.95.119.819-1,.167-.21-.137-.59.211-.618.776-.112.488-1.128,1.13-1.371-.879-1.842-3.251-3.768-.428-4.784.151-.693,1.412-.519,1.718-1.155.231-.478.469-1.009,1.2-.659-1.275-.426,1.838-3.6-1.673-3.911-2.213.377-1.039-1.222-1.56-1.9-.366-.35-1.487-1.227-.918-1.687,2.2.362-.565-.975.822-1.263-.067-1.16-3.462-.712-2.876-2.558.639-.922-4.585-2.206-1.295-2.78-.695-.437-.7-.437-.984-1.362-.666-.607-2.815-1.581-.769-1.986-.139-.659-.256-.627-.89-.5-2.624-.258-.487-2.592.705-3.336-.8-.076-1.036-.488-1.567-.858-.425-.163-1.426.187-1.37-.492.24-1.043,1.412.657,1.988-.233.481-.38,0-.339-.151-.4-1.368.535-1.6-.949-2.654-.966-1.412.8-.135-1.171-.6-1.87-.266.341.05,1.371-.563.824-.854.247-.458-1-1.1-.808-.84.151-.21,0-.087-.393-1.055.54-1.888-.538-2.048-1.4-.856,1.338-.709-.536-1.044-1.066-.155-.385-.785-.437-.629-.995-1.254.5-1.128-.329-1.908-.5-1.54,1.114-2.069-.872-.336-.849-.808-.522-.343-.6.371-.647-.9-.632-2.2-.069-3.05-1-2.277.524-2.117-2.664-3.7-3.032-3.7.877-2.91-1.9-4.755-2.929-.329-1.1-.847.1-1,.551-2.362-1.7-1.158-.146-2.6-.385-.568-.151-1.165.536-1.338-.513-.236.984-2.1-.4-1.908,1.089.668-.046.966-.778.641.359-.913-.416-1.581.522-2.483.1.073.108.254.183.089.359-1.238.828.762.508-1.066,1.059a2.467,2.467,0,0,0-1.592.311.659.659,0,1,0-1.291.126c-1.41-.21-1.419,1.913-2.567,2.313-.917.32.611.746.1,1.2-.677-.046-.933-.81-1.9-.252-.8-.7-.959-.361-1.883-.325-.886-.1-.281.21-.009.581-.128.13-.679.494-.515.659.6.51-.234.73.981.661-.11.451-1.179.474-.444.814-.97.554-.451-.306-.757-.641-.512.115-.311-.471-.588-.576-.309.414.067.8.044,1.185-.528-.306-1.155-.721-1.613.062-.931-.343-.412-1.334-1.139-1.769.016.787-.606.671-1.025.242-1.536-.451-.68.606.258.613.7.034.043,1.235,1.151,1.094-.812,1.451-1.995-.2-3.032-.373-.1.33.492.567-.012.636-.684,1.185,2.437-.1.311,1.364,1.329.144-1.114.812.217.837-.583,1.066-.126.242.883.513-1.5.9-.711.7-.641,1.792-.29.576-.629-.25-.917.025-2.981,2.366-.5.286-1.556,2.78-.254.874-.847-.2-1.311.082.941.945-1.211.638-.258,1.194-1,.95-2.068-.089-2.572,2.073,3.148,1.531-1.156,2.455-.171,3.258.945-.057-.25.531.483.625.515.039.1.654-.14.707-.81-.02-1.274,1.5-.528,1.508-.369.279-.552,1.028-1.135.835.085.835-.547,1.169-1.014,1.618.185.387-.092.7-.156,1.041-.059.794.627.147,1.014.256-.231.751-1.368.107-1.238,1.227C3.55,33.555.943,32.641.01,33.774c-.069,1.744,1.552.226,2.517.048-.3.5-1.391,1.684-.123,1.741.652.485.488,1.609,1.368,1.764a1.1,1.1,0,0,1,.709.881c.78,1.172-.606-.005-.236,1.95.524,1.329-1.972,1.489-1.778,2.744.085,1.076,1.544.892,1.544,2.034.78.487-1.126,1.355-1.432,2-.337.613,3.029.25,1.084,2.46,2.03,1.242-.727,2.073.462,3.563.654-.618,1.338,0,1.531.627.684-.151,1.142-.135.414.529.913.011.528-1.037,1.407.064-.295.263-1.151.75-.433.84,2.11-1.073.611,2.036.488,3.066-1.139.639.394.446.979.188.961-.309.766.355,1.13.668,1.522.291,1.533,1.286,1.181,2.451.572.535-.881,1.059.1,1.35-.018.579-.822,2.407.121,1.14.767-.121.371-1.268,1.119-1.156.611.247,1.284-.943,1.139.751.561-.828.892.552,1.682-.146.341-.227.615-.261.725.24.082.409.423-.281.471.119.938,1.4-.266-3.178.616-2.416.675.908-.055-1.272,1.068.165.325-.679.279-1.833.988-.886.419-.1.167.375.078.552.032.455.478.339.568-.059.872.165-1.3,1-.121,1.261-.385.238-.993-.009-1.235.556.933.632,1.464-.382,2.293-.8.494.115,1.116.146.309.677-.874-.382-2.057,1.037-.666.728.039.2-.261.306-.151.492.052.087.311-.117.323.224.426.87,1.952-.9,1.107.616.659-.385.771-.21.691.56.629-.11.38-.6.618-.84,1.052-.272,1.856.153,2.9.368,1.378.034,1.97-.513,2.648,1.062.206.581.965-.368,1,0-.121.488.316.472.544.616.187.117.21-.46.545-.176.083.071.073-.2.11-.311.131-.732.657.377.739-.131-.274-.309.137-.549.249-.185.13.243.59-.687.933-.84M6.554,23.594ZM21.247,62.148Zm-.2,2.149c.03.036.057.071.092.108A.227.227,0,0,1,21.047,64.3Z" transform="translate(0 0)" fill-rule="evenodd" fill="url(#linear-gradient)"/>
  </g>
</svg>
