<svg xmlns="http://www.w3.org/2000/svg" xmlns:xlink="http://www.w3.org/1999/xlink" width="30.137" height="88.812" viewBox="0 0 30.137 88.812">
  <defs>
    <linearGradient id="linear-gradient" x1="0.5" x2="0.5" y2="1" gradientUnits="objectBoundingBox">
      <stop offset="0" stop-color="#799131"/>
      <stop offset="1" stop-color="#475309"/>
    </linearGradient>
  </defs>
  <g id="Fichte" transform="translate(0.004 0)">
    <path id="Path_53" data-name="Path 53" d="M155.268,655.9h1.4l1.156,28.88a.976.976,0,0,1-.823,1.077h-1.787a.976.976,0,0,1-.823-1.077Z" transform="translate(-140.54 -597.044)" fill="#552619"/>
    <path id="Path_54" data-name="Path 54" d="M7.394,18.045A5.831,5.831,0,0,1,5.535,16.4c-.223.863,1.05,1.561-.064,1.98.4.2,2.192.6.934,1.023-1.068.933,1.367-.351.542.861C5.1,20.29,3.367,17.6,2.538,15.874c-.4-.51-.232.293-.015.458.446.353-.256.864.246,1.063.924.253.543.8.477,1.493,1.188-.532.2.581.58,1.016.189.294.565.252.9.4,0,.749-.3,1.5.564.415.585,2.869.726-.124,1.053,2.3.313-.165-.043-.983.385-.768.315.4.393-.753,1.205-.4,1.984,1.759-2.166,1.575-3.139,1.085-.891-.52-1.839-.662-2.344-1.7-.494.252.216.918.527,1.11.3.157.173.457.2.738.932-.378.742.384.645.968.367.015.4-.837.98-.469.45.482-.451.851-.279,1.3.974-.469,1.62.773,2.314,1.015,1.908,1.6-4.287.136-4.474-1.21-.862-.828-.2.715.351.854.41.408-.323.326-.448.588,3.168.062-.992.9.01,1.6.736.058.918.445.95,1.088.225-.241,1.022-.667,1.025-.118.354.847-.257.621.027,1.027.461.62-1.21.031-1.423-.153-.942-.476.335.629.808.551.01.411-.619,1.017.2.782.428-.249.989.5.5.758-.9.062-1.752-.657-2.574-1.014-.787.106,1.333.761.188,1.323.315.254.616-.005.938.008.435.057.135.465-.064.633.057.265.553.911.564.344.376-1.378,2.162.753.729.8-.909.393-3.823-1.624-2.641-.529.765.692-.15.793-.492,1.134.162.324.781-.074.479.634.763-.59,2.186-.144,2.187.827.81-.418.439-.188.889.47.389-.724,2.214-.778,1.582.3,0,1.145,1.146-1.818,1.193.31,1.009-1.7,2.256.713.035.29-.93.14-4.685-1.489-3.964-.541.364.44.7-.188.826.549.874-.317,1.232.217,1.358.957.395-.084.282-.4.3-.652.966.635-.493.941-.964.959.855,1.566-3.382-.461-3.536.129.034.515-1.082.214-1.357-.049-.277.9.9.562,1.393.682-.326,1.52.2.4.9.326.766.023-.118,1,.344,1.327.114-.4.208-.919.595-1.155.9-.016.214.857.343,1.262.226.107.257-.3.336-.454.277-.648,1.471.276.737.809.314.585,1.112-.679,1.453-.951.472.293.219.93.836,1.227.169-1.2.942-.038,1.01-1.672.427-1.051.958,1.108,1.149-.284,1.733-1.221-.69,2.28-1.831,2.283-1.106,1.191-5.987.583-5.484,1.3,1.751-.18,3.091.547,4.5-.395.135.362-.734,1.45,0,.987,1.093-2.408,2.516-.024,3.134-1.144a1.608,1.608,0,0,1,.9-1.579c-.071,1.025.45.349.966.086,3.233-1.053-1.663,2.538-3.25,2.845-.931.433-6.24.794-3.732.8.5-.144.674.056.934.406.372-.774,1.759.21.9.694-1.168.382-3.783-.3-4.143.063C2.7,46.934,5.16,45.6,4.348,47c-.023.358-.041.387-.389.376-.431.035-1.219-.348-1.455.109,1.088.328,2.61.07,3.369,1.03-1.078.58-2.439.371-.6.921.144-.351.612-.807.974-.511-.55,1.352,1.362-1.674,2.07,1.091-1.592.8-8.839,1.095-3.742,1.469-.619,1.177,1.516-1.07,1.692.336-.5,1.334-.4,1.343.938,1.239,1.412,1.309-.758,2.053-1.916,1.927-.907,1.044,1.831-.6,1.551.707.4-.555.76-1.393,1.714-1.091,2.041,1.427,2.246-1.549,2.5.651-1.036,1.151-2.9.972-3.869,1.928.346.006.507.765.77.275,1.647-1.909.026,2.138,2.513-1.047.275-.21.769-.513.391.088a.942.942,0,0,0,1.275-.433c1.178.817-2.3,2.1-2.778,2.574.671-.261,1.29-.014,1.918-.337.744.826.485-1.175,1.35-1.019-.1.672,1.805-.006-.51,1.4-1,.64.465.468.769-.032,1-.681.266.6-.142.983-.691.692-1.158,2.075.012.782a.646.646,0,0,1,.755-.29c.835.165-.053-1.606.914-1.247l.451.144c.2.5,2.706,4.4,2.406,3.117-.905-1.138-.349-2.875-1.164-3.968-.267-.928.647-1.047.569-.07-.273,1.052.468,1.791,1.326,2.245.115-.5-.754-.61-.694-1.169.6-1.219,1.588,1.435,2.159,1.717.186-.717-2.207-3.538-1.009-3.11.415.962-.057-.38.568-.346.021,2.427.69,2.966.854.373.24.465,1.2-.052.9.651-.579-.124-.511.372-.1.637.527-.7,1.406-.205,1.192.74.17.485.3-.431.4-.673.557-.06.294.858.813,1.146.04-.208-.12-.863.156-.57.957.789-.013-.947,1.94.452,1.87.433-2.574-1.779-3.491-2.237-.808-.243-2.538-2.435-.826-1.264.607,1.39.651-.309,1.565-.079.584.36.516,1.027.671-.1a3.966,3.966,0,0,0,1.388-.195c-2.105-.46-3.713-.057-5.181-1.7-.8-.187-.736-.784.087-.585,1.306,1,.613.772,1.025-.24.543.876,5.061,2.113,2.165.747a27.022,27.022,0,0,1-3.143-2.895c.084-2.027,2.023,1.355,2.119,1.343-.019-.8,1.369-.58,1.157.109-.162.627.954.135.808.678-.24,1.629.039.046.626-.28.857.2.066,2.377.983,1.131.564.841.3-.587.817-.476.17.381.051,1.071.587,1.132.126-.289-.511-1.362.282-.921.308.247.971.323.962-.205.431.07.939.187.4-.214-.318-.578-.937.124-1.339-.264-.932-.291-1.45-2.2-.308-.839-.132-.966.142-.352.585-.034.189-1.148,1.315-1.153,2.224-.862.682-1.092-2.473.1-2.8-.677-.314-1.349,1.9-.282,2.556-.626C27.4,50,23.577,50.1,22.913,48.535c.168.044,3.382.644,2.541.03-.44-.191-.538-.435-.983-.118-1.084-.018.738-.837-.236-.834-.119,1.032-1.5-.413-1.962-.458-1.531-.584-.9-.546-.191-1.507.276.366.291,1.317.968,1.053.356.684.38.128.683-.118.37.15.266.845.829.843-.451-1.127.365-.66,1.05-1.126-.02.4.09.689.532.558a3.849,3.849,0,0,1,1.83-.336c.406-.948-7.111-.731-4.862-3.552,1.027-1.315.169,1.457.767.57.576-1.146,1.265-1.26,2.077-.3-.371-.669.7-1.619,1.344-1.116a2.645,2.645,0,0,1,1.6-.913c.173-.582-.833-.008-1.133-.007a17.113,17.113,0,0,1-4,.705c-1.585.062-4.659-.593-1.5-.931,1.671-.116-1.029-.639-1.534-.7-.936-1.86-.041-.336.069-1.629.818.325.162,1.55,1.038,1.66.132-.656-.611-1.369-.462-2.053.625-1.384.7,1,.8,1.489.369.627.468-.738.3-1.054.826-.21-.24-.448.406-.77.779-.162.308,1.543,1.008,1.565-.088-.625-.606-2.422.606-1.311.355.419.388-1.068,1.33.3.357-1.517.3.828.943.772.176-.2-.1-.383-.233-.532.133-.223.19-.419-.066-.572-.41-.466.336-.934.549-.352-.01.16.282.715.391.433,0-.265-.258-.652.124-.742.617-.4,1.01-.736,1.737-1.24-.237-.54-3.768,2.158-3.519-.1-.862-.092-1.782.938-1.234-.925.881-.985.5.591,1.218.5.085-.66-.241-1.448-.09-2,.644-.217.556,1.237,1.307,1.091-.122-.527-.569-.9-.345-1.526.72.06.6,1.258,1.425,1.226,0-.647-.789-1.106-.7-1.8.319.373.586,1.151,1.142,1.042-.215-.258-.9-1.718-.032-1.147,2.315.919-.961-.476,1.683-1.266-2.1.214-4.567,1.892-6.91,1.14.449-.454,1.051-.093,1.2-1.205.1-.755.762-.32,1.2-.536-.808-1.136-1.39.531-2.212.681-1.278.287-5.158-.377-2.083-.47.46-.73-1.559,0-.7-.792.56-.074-.2-.6.258-.721.779-1.16,2.181,2.247,2.269.355-.2-1.091,1.228.435.99-.346-.218-1.095.543.237.8.468.856.722,1.327-.01.368-.555.03-1.045,1.21.607,1.715.807.468-.978-1.731-1.2-.761-1.6.369.065.366.592.734.517.031-.56-1.821-2.189-.167-1.922.153.048.178.164.207.306,1.14,1.006-1.082-1.676.022-1.39a1.073,1.073,0,0,1,.71.393c.094.21.819.608.686.132-.348-.242-1.649-.946-1.112-1.324,2.776-3.791-1.182.406-2.67,1.321-.756.582-3.605,1.326-3.753.2.118-.537,1.056-.3.582.17.18.214,1.007.325.769-.152-.682-1.162.236-1.174.887-.4.505-.347-.468-.676.038-.957.343-.694,1.888-1.449,1.5-2.187a7.885,7.885,0,0,1-2.318,1.516,3.069,3.069,0,0,0-.456-1.358c.043-.671.9-.078,1.124.213-.432-.954-.748-.864.513-1.291.008-1.4,1.289.151,1.839,0-2.585-2.93-.116-1.016-.371-2.49.518-.134.991.232,1.438.21-.134-.621-1.5-.323-.761-1.012.176-.328.394.2.636.1,1.161-.4.23-.816-.394-.707-.943-.093.473-1.786.478-2.385-.025-1.783-2.229,4.479-2.594,2.826-.083-.456.259-1.875-.291-.858-.516.6-.961,2.415-1.363.642.136-.251.452,0,.7-.1-.12-.587.623-.288-.2-.85-.2-1.586-1.5,2.447-2.564.993-.465-.75.705-.46,1.082-.365.1-.45-.473-.323-.63-.625,1.843-1.844-2.8,1.872-1.965-.556,1.327.608.261-1.977,1.158-.988.522,2.112.4-.2.4-.81.532-.833.911,1.564,1.022.286-.494-2.126.413-.838.861-1.569.012-.326-.64-.59-.311-.852.513-.4-.138-.886.112-1.348.049-.144.223-.42-.029-.463-.242,1.737-4.178,4.279-2.263,1.979-1.179.414-1.809-1.487-.3-.829,1.041,0-.576-.47-.736-.84.126-.451.67-.184,1.009-.293.8-.347-.591-.6-.928-.7.372-.562,1.2.014,1.462-.406-.16-.127-.3-.289-.542-.176,2.135-3.391-1.166.32-2.326,1.379-1.05.172,1.123-1.351-.1-1.383-.374-.009-.137-.494-.511-.524-.149-.088-.144-.213.018-.274.669-.366,1.7,1.077,2.079.323-.563.185-1.732-1.2-1.106-.894a4.719,4.719,0,0,0,1.592.386c.026-.728-.929.13-.652-.789-.222-.049-.718.127-.3-.212.5-.332,1.057.056,1.588-.125-.233-.234-.879-.07-.792-.515,1.182-1.781-.883.55-1.7.245-.063.7-.852,1.553-1.1.45.074-.787-.42.256-.716-.367.121-.555,1.379.013,1.67-.139-.154-1.449.71-.033,1.161-1.056-1.058-.694.461-.8,1-.865-.444-.769-.548.207-.73-.927-.5.281-1.179,1.565-1.548.854-.438.185-.162.788-.666.855-.568.026-.536-.2-.191-.635a.6.6,0,0,0-.747.393c-.992.551-.647.206-.7-.552.059-1.1.1-.78.815-.464.6-.094.106-.565-.083-.79.249-.256.552-.123.825-.18.054-.339.074-.424.392-.3.266-.315-.283-.324.054-.662-.2-.625.846-1.467-.3-.6-.808.235-.118,1.056-1.578.921-1.138.023.336-1.083-.181-1.321-.439-.484-.69-.655-.035-1.132-.575-.308-.436-.485-.175-.971-.566-.791-.411.238-.612.616-.387.905.319,1.414.19,2.116-1-.067-.865-1.853-1.566-1.884-.137,2.454,1.607,2.494.682,3.343.873.719.793.568.86,1.624-.64-1.031-.721-.01-.354.528-.92.043-.425-1.006-.857-1.328-.441.583-.849-1.064-1.182-1.443-1.124-.721.7,1.185-.178,1.211-.074.316.581.262.126.711.944.263.957,1.655,2.045,1.7.248.844-.964.722-1.173.107-.1-.273-.3-.811-.507-.379-1.107-.377-1.5-1.628-2.466-2.14.258.99,1.169,1.461,1.44,2.381.294.4,1.024.5.522,1.028,1.591-.271.807.274,1.828.9-1.5.27-2.11-.688-.959.684.483.368,1.706.932,1.432,1.7-1.167-1.465-2.78-.314-4.624-1.794.314.9,1.94.835,1.062,1.7,1.185.147,2.133,1.5.677.86-.905.251.713.465.917.808-.051.175-.257.3-.143.539,1.081-.718.455.073.843.285,1.145.555-3.616-.528-4-1.848-.722-1.238-.815-.38-.174.384-.093.719,1.293,1.114.82,1.57-.6.243-.451,1.152.1.441.312-.394,1.63.026.9.586.085.156.189.122.314.063,1.269-.631.213.237.684.7-1.771,1.06-3.974-1.934-5.248-3.029-.572.162.852,1.2,1.028,1.767-.348.107-1.251,1.107-.459.775.423-.572,1.213.319,1.019.734-.258.143-.089.362.134.389,1.334-.089,1.324,1.583.4,1.48m-5.37,9.2a2.348,2.348,0,0,1,1.777-.118C4.267,28.243,3.175,27.68,2.638,27.361ZM4.617,47.406c.284-.837.673-.174,1.169-.174-.163-.222-.591-.4-.415-.692.244.011.719,0,.816.309.164-.186,1.492-.387.954-.041.267.255.459-.116.7-.211.366-.276.874.426,1.025-.243,1.453.6-3.7,1.178-4.245,1.053ZM5.609,27.9l-.127,2.511h0c.087-.545-1.2-.79-.535-1.184.358,0,.266-.221.373-.447.7.156-.173.782.311.961a4.043,4.043,0,0,0,1.915.835c-.549.681-1.382-.166-2.066-.164Zm8.212,27.04c-.3-.131-.1-.6.056-.831C14.3,54.052,14.113,54.9,13.821,54.94ZM20.5,37.566c-.263.481-.812.4-1.132,0,.267-.354.265-.379.006-.627.243-.287.146-.526.135-.845A3.4,3.4,0,0,1,20.5,37.566ZM21.734,22.3c-.159-.051-.22-.151-.144-.3.235-.324-.328-.516-.057-.788C21.944,21.429,22.682,22.72,21.734,22.3Zm-1.049.076c.6.244.013-.678.4-.868a.637.637,0,0,1,.022.937c-.778.721-3.358.966-3.968.168.51-.71,1.853.411,2.461-.158h0c.4.222.608-.162.16-.331C20.129,21.568,20.478,21.932,20.685,22.376Zm4.306,25.776c.848-.123,1.057.089,1.458.8C25.912,49.146,24.528,48.63,24.991,48.152Z" transform="translate(0 0)" fill="url(#linear-gradient)"/>
  </g>
</svg>
