<svg xmlns="http://www.w3.org/2000/svg" xmlns:xlink="http://www.w3.org/1999/xlink" width="38.947" height="88.812" viewBox="0 0 38.947 88.812">
  <defs>
    <linearGradient id="linear-gradient" x1="0.5" x2="0.5" y2="1" gradientUnits="objectBoundingBox">
      <stop offset="0" stop-color="#dd7907"/>
      <stop offset="1" stop-color="#6f6b04"/>
    </linearGradient>
  </defs>
  <g id="Lärche" transform="translate(0.004 0.004)">
    <path id="Path_66" data-name="Path 66" d="M139.579,151.93H133.29a12.645,12.645,0,0,0,1.572-5.459c.2-17.568.949-63.678,1.572-74.54,1.322,2.432.731,39.356,1.449,52.124.686,8.376-1.9,21.495,1.694,27.875Z" transform="translate(-117.146 -63.121)" fill="#7f2b0a"/>
    <g id="Group_72" data-name="Group 72" transform="translate(-0.004 -0.004)">
      <path id="Path_67" data-name="Path 67" d="M60.741,341.883c.127-1.313,1.039,1.589,4.713,2.67s7.913-2.313,7.8-.606c1.709-.055.713,3.4-.591,3.478.2,1.29-1.473,1.773-2.5,1-.668,1.1-1.834.987-2.654,0-.9.914-2.251,1-2.639-.228-1.179.508-1.976-.658-1.908-1.85-1.192.05-2.106-.676-1.686-1.794-1.153-.306-1.828-2.927-.533-2.67Z" transform="translate(-52.789 -299.704)" fill="url(#linear-gradient)"/>
      <path id="Path_68" data-name="Path 68" d="M59.518,361.8c-.481-1.593-1.123,2.021-5.56,2.919s-8.832-2.078-7.731-.45c-1.945.277,0,3.154,2.227,2.191-2.227,2.148,1.312,2.828,2.583,1.46-.88,3.335,3.032,1.734,3.65-.5.337,2.406,2.654,1.185,2.654-.682.659,1.867,2.3.611,2.175-.843,1.364.521,2.6-1.024,1.4-1.852,1.27-.718-.174-3.375-1.4-2.246Z" transform="translate(-39.863 -317.126)" fill="url(#linear-gradient)"/>
      <path id="Path_69" data-name="Path 69" d="M19.791,517.737c-1.207-.5-1.937,1.937-9.068,5.5s-11.455.526-10.094,2.891c-1.306.252-.708,3.791,2.906,1.1-2.526,3.032,1.685,3.369,2.526,0,.113,3.089,2.358,3.256,2.808-.617.617,2.19,3.93,2.471,4.38-1.965.954,3.593,2.859-.327,2.919-1.517.843,2.471,3.089.954,2.471-.646C21,524.7,21,518.243,19.791,517.737Z" transform="translate(0.004 -454.249)" fill="url(#linear-gradient)"/>
      <path id="Path_70" data-name="Path 70" d="M173.869,526.852c1.277-1.192-2.565.489-8.839-1.033s-7.9-7.548-8.015-5.4c-1.85-1.105-2.145,4.223,0,4.436-1.187,1.8,2.233,4.1,3.874,3.145a2.141,2.141,0,0,0,3.706,1.235c.641,1.6,2.981,1.187,3.538,0a1.46,1.46,0,0,0,2.639-.561C171.811,529.478,175.518,527.427,173.869,526.852Z" transform="translate(-136.83 -456.261)" fill="url(#linear-gradient)"/>
      <path id="Path_71" data-name="Path 71" d="M65.188,543.891a1.253,1.253,0,0,1-1.067,2.191c.5,1.235-.5,3.706-2.3,2.021.787,1.909-.787,6.155-2.752,2.976.233,2.2-3.987,4.773-3.874,1.909-.794,1.18-5.221-.393-2.191-1.4-1.266-.649,3.6.339,6.093-5.054s4.408-10.051,5.025-8.7c4.043-2.649,2.3,5.551,1.067,6.064Z" transform="translate(-45.685 -471.474)" fill="url(#linear-gradient)"/>
      <path id="Path_72" data-name="Path 72" d="M145.9,569.978c-.882,1.38-.328,5.089,1.98,3.987-.447,2.518,2.507,2.71,3.776.73.871,2.186,2.719,1.594,3.538,0,.82,1.594,2.191,1.72,2.7,0,1.1,1.411,3.5-.116,3.538-1.4,1.025.778,2.911-.562,1.685-.954,1.033-.769-7.525.561-12.634-3-4.848-3.38-5.718-8.206-6.514-6.3-1.083-1.754-3.652,1.794-1.741,2.567-1.741,1.105.7,2.679,2.3,2.338-1.275,1.076-.224,2.884,1.376,2.042Z" transform="translate(-124.561 -493.631)" fill="url(#linear-gradient)"/>
      <path id="Path_73" data-name="Path 73" d="M19.863,473.129c-.109-1.4-1.251,1.807-7.878,3.482s-11.288-.2-10.444.73c-1.214.316-.731,3.348,2.3,1.741-1.011,3.027.9,3.65,2.3,1.609,1.029,3.038,3.316.464,3.65-.935.617,2.353,3.706,1.8,3.538-1.19,1.011,3.543,2.191,1.751,2.639.8.636.842,2.21-.022,2.176-1.077.949.461,3.31-.963,2.428-2.012,1.338-.293.472-3.891-.714-3.145Z" transform="translate(-0.811 -414.863)" fill="url(#linear-gradient)"/>
      <path id="Path_74" data-name="Path 74" d="M144.8,465.5c-1.525-1.134-3.14,2.306-1.291,2.639-1.079,1.539,1.2,2.028,2.743.954-.458,2.349,1.356,3.256,3.1,1.511-.113,2.369,1.612,2.3,2.976.838.755,1.852,2.251,2.117,3.145.281,1.011,2.481,2.987.455,3.369-1.118,1.011,1.971,3.806-.113,2.358-.837,1.264-1.011-2.743.1-8.844-1.157s-7.163-4.972-7.553-3.112Z" transform="translate(-125.566 -408.016)" fill="url(#linear-gradient)"/>
      <path id="Path_75" data-name="Path 75" d="M58.1,420.62c.394-1.56-.61,2.134-6.736,2.976s-9.089-.141-7.754.5c-1.481-.075-.472,3.538,1.852,1.179-.674,2.251,1.911,2.8,2.472,1.067.158,1.812,3.428,2.639,3.428-.625.837,2.927,3.2.954,2.858-1.34.773,2.583,3.8,1.694,3.425.337.876,1.1,2.388-1.331,1.059-1.8,1.406-.088.365-3.583-.606-2.3Z" transform="translate(-37.656 -368.755)" fill="url(#linear-gradient)"/>
      <path id="Path_76" data-name="Path 76" d="M158.146,415.626c.031,2.436,2.293,2.753,3.256,1.465.35,1.569,1.821,1.517,2.358,0,.8,1.394,3.732,1.126,3.538-.648,1.473,1.007,3.412-2.079,1.628-2.047,1.136-1.376-2.8,1.653-7.2.021-4.545-1.685-6.554-5.255-6.5-3.221-1.58-1.28-2.481,3.092-.452,2.948-1.21,1.634,1.54,3.091,3.369,1.484Z" transform="translate(-135.153 -360.285)" fill="url(#linear-gradient)"/>
      <path id="Path_77" data-name="Path 77" d="M158.362,334.817c-.142-2.139,1.514,1.572,5.892.947,5.46-.779,6.8-5.313,6.415-2.857,2.341-.837,1.3,3.509-.787,3.369.874,1.9-.725,2.864-2.415,1.628.113,2.074-1.828,3.425-3.93.843-.7,1.968-2.08,2.443-2.864.5-1.329,1.614-4.112.263-2.917-1.517-2.134-.2-1.34-3.815.606-2.919Z" transform="translate(-137.682 -291.488)" fill="url(#linear-gradient)"/>
      <path id="Path_78" data-name="Path 78" d="M76.008,306.456c.154-1.342-1.2,1.46-5.729.5s-6.741-4.132-6.317-2.583c-1.6-.081-.528,3.04,1.785,2.583-.2.892.535,1.613,1.339,1.179.105,2.159,2.351,2.159,2.411.424.466,1.163,1.794,2.047,2.8.924,1.468,2.478,3.989.927,3.706-.393,1.343.142,1.323-2.911,0-2.639Z" transform="translate(-55.567 -266.72)" fill="url(#linear-gradient)"/>
      <path id="Path_79" data-name="Path 79" d="M163.219,285.915c.57-2.081-1.574,2.738-5.166,3.805s-6.54-1.507-5.784,0c-1.589-.564-1.17,3.451.337,2.7-.564,1.589,3.263,2.186,3.706,0a1.823,1.823,0,0,0,3.356-1.284,1.525,1.525,0,0,0,2.315-1.966c1.835.434,3.089-4.358,1.235-3.25Z" transform="translate(-132.986 -250.434)" fill="url(#linear-gradient)"/>
      <path id="Path_80" data-name="Path 80" d="M89.252,258.407c.409-1.583-.695.393-3.946.715s-7-3.282-6.406-1.888c-1.392-.6-.752,2.766.753,2.594-.972,1.163.7,3.316,1.878,2.2-.083,1.621,2.2,1.179,2.757-.224a1.573,1.573,0,1,0,3.139.224c.668,1.11,2.951.317,2.191-.73,1.274.234,1.024-3.756-.363-2.891Z" transform="translate(-68.688 -225.437)" fill="url(#linear-gradient)"/>
      <path id="Path_81" data-name="Path 81" d="M153.26,255.074c-.074-2.012,1.574,1.557,4.717.73,3.2-.843,4.433-4.7,4.352-2.758,1.152,0,.365,3.88-1.474,3.292a1.529,1.529,0,0,1-2.5,1.487,1.743,1.743,0,0,1-2.734,1.8c-.7,1.15-2.734.474-2.362-.82C151.915,258.738,151.284,254.694,153.26,255.074Z" transform="translate(-133.622 -221.571)" fill="url(#linear-gradient)"/>
      <path id="Path_82" data-name="Path 82" d="M92.727,189.793c.9-.872-1.936-.73-4.739-2.191-2.562-1.334-4.662-5.808-4.21-2.891-2.635-1.329-1.269,3.621,1.176,3.552-1.632,1.587.165,3.9,1.724,1.523-.167,1.807,1.867,4.387,2.989,1.3.281,3.145,2.471,1.72,2.134,0,1.464,1.622,2.16-1.066.926-1.291Z" transform="translate(-72.39 -161.231)" fill="url(#linear-gradient)"/>
      <path id="Path_83" data-name="Path 83" d="M156.147,212.074c3.112-.81,4.392-4.335,4.056-2.219,2.142-.065-.379,2.924-2.07,2.856.681.927-.614,2.684-2.07,1.866-.534,1.584-2.385,1.631-2.752,0-1.534.663-3.443-1.946-1.718-2.361C150.864,210.6,153.035,212.883,156.147,212.074Z" transform="translate(-132.655 -183.56)" fill="url(#linear-gradient)"/>
      <path id="Path_84" data-name="Path 84" d="M153.749,151.331c.038-1.5,1.406.41,4.1-.965s3.417-5.545,3.536-2.882c1.9-.548.338,2.94-1.927,3.678.414,1.6-.695,3.467-2.115,2.625-.692,1.976-4.263,2.5-3.893.561-1.495-.165-1.17-3.347.3-3.019Z" transform="translate(-134.03 -128.651)" fill="url(#linear-gradient)"/>
      <path id="Path_85" data-name="Path 85" d="M105.376,138.766c.833-1.541-2.246.281-4.773-1.685-1.032-.8-2.013-3.44-2.246-1.685-1.772,0-.337,3.987,1.9,3.369.107,2.34,1.975,3.256,3.153,1.961C104.852,141.722,106.792,139.8,105.376,138.766Z" transform="translate(-85.751 -118.29)" fill="url(#linear-gradient)"/>
      <path id="Path_86" data-name="Path 86" d="M146.347,115.848c-1.338-1.5.6-.027,3.515-.588s4.565-3.233,3.706-1.46c1.857-.657.016,3.324-1.425,2.7.582,1.46-1.057,2.079-2.186,1.067.091,1.513-2,2.523-2.117,1.011C145.855,120.089,143.281,115.765,146.347,115.848Z" transform="translate(-127.393 -99.331)" fill="url(#linear-gradient)"/>
      <path id="Path_87" data-name="Path 87" d="M113.485,85.7c.5-1.421-2.192-.04-3.37-1.386-1.264-1.441-1.438-5.052-2.372-2.845-2.13-1.1-1.781,2.795,0,3.425-1.011.787.281,2.91,1.965,1.852.4,1.846,2.976,2.526,3.313,1.056,1.441.447,1.92-1.708.464-2.1Z" transform="translate(-93.406 -70.872)" fill="url(#linear-gradient)"/>
      <path id="Path_88" data-name="Path 88" d="M150.321,68.1c-.811-1.268,1.824.169,3.786-1.291s2.734-4.265,3.029-2.358c1.928-.036-.447,3.448-1.947,3.65,0,1.513-1.312,2.752-2.443,1.759C151.61,70.848,149.173,69.072,150.321,68.1Z" transform="translate(-131.856 -55.99)" fill="url(#linear-gradient)"/>
      <path id="Path_89" data-name="Path 89" d="M126.562,48.676c.458-1.437-1.126-.98-2.449-2.106s-.865-3.363-1.594-2.025c-1.4-.6-1.179,1.436.271,2.246-.671,1.518.684,2.333,2.274,2.358.123,1.587,1,3.5,1.5,2.078C128.025,51.592,127.95,49.267,126.562,48.676Z" transform="translate(-106.847 -38.724)" fill="url(#linear-gradient)"/>
      <path id="Path_90" data-name="Path 90" d="M153.489,38.014c-.632-1.136,0,.744-1.294,2.35s-3.315,1.99-2.27,2.327c-.489.984,1.961,1.055,2.268,0a1.3,1.3,0,0,0,1.576-1.822c1.073-.458.75-3.65-.279-2.856Z" transform="translate(-131.499 -33.052)" fill="url(#linear-gradient)"/>
      <path id="Path_91" data-name="Path 91" d="M145.255,2.11C144.89.947,145.38-.47,146.42.145c1.046-.6,1,.767.605,1.909,1.192.954,0,3.348-.662,4.493.671,1.138,1.376,2.254.662,2.654,0,.818-1.335,1.2-1.637.435-.811-.111-.57-1.708.058-3.032-.845-1.2-1.615-3.93-.19-4.493Z" transform="translate(-126.945 0.004)" fill="url(#linear-gradient)"/>
    </g>
  </g>
</svg>
