<svg xmlns="http://www.w3.org/2000/svg" xmlns:xlink="http://www.w3.org/1999/xlink" width="75.093" height="88.812" viewBox="0 0 75.093 88.812">
  <defs>
    <linearGradient id="linear-gradient" x1="0.155" y1="0.185" x2="0.832" y2="0.91" gradientUnits="objectBoundingBox">
      <stop offset="0" stop-color="#e4652e"/>
      <stop offset="1" stop-color="#a0b01a"/>
    </linearGradient>
  </defs>
  <g id="Rotbuche" transform="translate(0 0.002)">
    <path id="Path_50" data-name="Path 50" d="M224.98,382.33h-2.7a1.2,1.2,0,0,0-1.043,1.235L219.121,412c-.06.8.425,1.5,1.043,1.5h6.926c.618,0,1.1-.7,1.043-1.5l-2.111-28.438A1.2,1.2,0,0,0,224.98,382.33Z" transform="translate(-186.081 -324.69)" fill="#835f47"/>
    <path id="Path_51" data-name="Path 51" d="M73.943,43.042c.051-1.393,2.09-1.03.615-3.943-3.686-4.234.137-2.925-.466-6.165-3.413-4.022-1.168-6.263-4.324-7.6C69.19,9.768,61.51,17.047,54.962,7.006c-.742-.214-1.824.775-2.011-.409-2.007-3.071-3.578,2.964-4.924-.368-1-1.087-1.738-2.439-3.053-2.439-2.9,1.533-2.2-1.67-4.57-1.925C38.381,1.426,37.851-.694,36.195.227c-.775.324-1.547-.409-2.15.317-1.084,1.2-2.923.3-4.113,1.257-1.181,1.517-2.777-2.167-3.6.573-.437,1.2-3.971,6.5-4.983,6.243-2.082-.805-2.147,1.9-3.011-.84-4.25,2.356-4.511,2.427-6.9,6.907-2.675-.891-1.737,4.457-4.146,3.6.258,2.827-1.838,1.835-1.467,4.588.142,1.761-1.429.546-1.743,1.625-.636,1.877-3.857-.556-1.524,4.764-.953,1.517.811,4.912-1.073,5.224C1.073,37.136,2.516,40.862,0,42.579c.549.225,1.138.273.638.933-2.394,3.6,3.608,7.486.08,10.352-.936,2.221,6.418-.342,5.063,2.464-1.024,1.683,3.327.427,3.6,3.43,6.252,6.016,6.227-4.442,8.185,9.444.558,2.394,3.044-1.1,4.532-.176,3.643.452,7.516-1.821,10.9-.879,1.45.989,2.611-.093,3.486-1.141,1.313-.893,2.335,1.321,6.007.232a2.2,2.2,0,0,1,1.891.372c1.215,1.517,3.4-1.945,4.045-.092.2,2.043,2.367-.748,3.094,1,1.095,1.716,2.4-1.328,5.507-1.7.371.009.378-.375.734-.8a3.331,3.331,0,0,1,1.726-1.138c3.567-.721,2.177-3.08,5.343-3.9,4.111-2.13.6-5.788,3.73-7.611,2.366-.62-.446-5.067,2.442-5.553,1.613-.546.172-3.558,2.18-3.026,1.105.357.668-1.117.755-1.752ZM47.5,7.01c.149-.231.321-.487.523-.776C47.855,6.508,47.677,6.767,47.5,7.01ZM64.659,60.2q.1.371.173.775A3.008,3.008,0,0,1,64.659,60.2Z" transform="translate(0 0)" fill="url(#linear-gradient)"/>
  </g>
</svg>
