<svg xmlns="http://www.w3.org/2000/svg" xmlns:xlink="http://www.w3.org/1999/xlink" width="69.381" height="88.813" viewBox="0 0 69.381 88.813">
  <defs>
    <linearGradient id="linear-gradient" x1="0.5" x2="0.5" y2="0.69" gradientUnits="objectBoundingBox">
      <stop offset="0" stop-color="#e39b46"/>
      <stop offset="1" stop-color="#5d691d"/>
    </linearGradient>
  </defs>
  <g id="Spitzahorn" transform="translate(-0.027 0.027)">
    <path id="Path_94" data-name="Path 94" d="M179.151,396.46h-1.276a1.116,1.116,0,0,1-1.115-1.13l.25-20.841h2.977l.28,20.839A1.116,1.116,0,0,1,179.151,396.46Z" transform="translate(-145.19 -307.675)" fill="#303629" fill-rule="evenodd"/>
    <path id="Path_95" data-name="Path 95" d="M35.07,67.138c2.052-1.114,1.772.8,2.813.784.971.327-.232.946.327,1.522.23.321.553.193.808.055.744-.307,1.214.371,1.469-.6.562-.593,1.339-.175,1.4.762.723-1.442,1.5-.546,2.145.232.225-1.267.268-3.468,2.013-2.074,1.29.375.25-1.192.853-1.713.519.164,1.381,1.788,1.374.514.5-.1.1,1.1.908,1.1a2.784,2.784,0,0,1,.521,1c1.265,1.249.455-4.867,2.843-2.4-.514-3.318,2.038-1.33,3.593-.794.054-3.305,2.584,1.31,3.257-.621-3.9-5.965,1.078-2.333.107-4.478-.635-1.064.054-3.418,1.228-1.8.245,1.121.851.607,1.6.466.312-1.035.359-2.133,1.77-1.7-.011-1.057-1.681-2.829.748-2.379-.145-.359.036-.853-.118-.955-.741-.473.068-1.378-.405-1.853-.734-.4-.612-1.314-1.164-1.813-.585-.464.134-.651.544-.519,1.323-.17.428-1.217.966-1.77,1.055-.644-.477-.96,1.26-3.113.062-.412.65-.516.56-1.021-.018-.111.177-.061.277-.043.61-.418,2.873-1.14,1.654-2.127-.891-.643.355-1.365.012-2.176-.057-.753-.469-1.842.712-1.787.723-.129-.266-1.119-.28-1.567-.46-.55-1.979-.382-1.663-1.233.323-2.081-2.417-.646-3.4-.709-.407-.171-.093-1.014-.473-1.264a1.275,1.275,0,0,1-.578-1.744c-.725-.386-1.123-.58-.7-1.415.684-.866-.018-1.526-.332-2.4-.928-.534.209-1.28-.18-2.031-.187-.253.378-.428.371-.082.191,1.894,1.522-1.233.643-1.644-1.069-.1-.666-.534-1.087-1.073-.794.161-.114-1.173-.83-.883-.528.437-.753-.764-1.3-.253-.578.56-1.016.02-1.637.018a.531.531,0,0,0-.644.534c-.626.1-.066-.914-.576-1.212-.942-.612.516-1.621-.393-2.035-.723-.13-.55-1.078-1.29-1.194-.321-.4.477-.646.844-.059.266-.175.362-.942-.134-.694-.58.4-1.083-.323-1.592.029-1,.651-1.621-1.055-2.5-.223-1.2.373-2.235,1.8-3.022.487.221-.6-.966-.985-.48-1.412.362-.209.168.46.534.407.628-.721.268-.51,1.107-.232,1.555-1.1.484-3.523,1.512-5.017.516-1.788-2.4-3.546-3.539-1.958-.742-1.747-.839.246-1.331.121-.278-.13-.969.548-.949-.036.489-.821-.284-2.088.6-2.615.88-.741-.821-.646-.748-1.344-.248-1.124-1.44-1.817-1.39-3.027-.236-.444-1.148.07-1.11.527-.1.976-1.522-.237-1.726.91-.337.38-.61-.487-1.067-.3a.364.364,0,0,1-.353-.516c.792-.009.767-.079.464-.728-.255-.48.048-1.224-.339-1.61-2.179.628-3.659-1.9-5.249,1.21-.484.607,1.464.634.518,1.287-.575-.045-.75-.832-1.317-.862.409-.559.082-.976-.234-1.385C33.2.486,33.051.392,32.926.549c-.539.5-2.029-.485-1.7.835.325.573-1.2-.382-1.712.262-3,.093-.789,5.17-3.366,5.972-1.312-.178-1,1.621-2.452,1.251-.755-1.28-1.812,2.608-2.322-2.063-.7,2.809-2-1.158-2.429.294-.071.3.109.518.33.826-1.215-.364-.532,2.736-2.274,1.1-.839,1.988.987,5.035-.925,6.527a2.873,2.873,0,0,1-2.27-1.717c-.045-.316-.282-.3-.493-.152-.891,1.467.482.573-1.4,1.983-.634,1.258-2.44-.344-3.118.885-.087.468,1.151,1.456-.091,1.535-.764-.087-1.421,1.126-.471,1.367.223.321.129.719.68.71.659,1.569-.07.814-.65,1.8-1.128-.034-2.135.441-3.22.059-.634-.134-.773,1.335-.146,1.431.741.334-.734,1.483-.5,1.979.337.635-.493.582-.582,1.09-.145.22-.214.591-.609.289-.041-.282.521-.632.057-.819-.728-.286-.41.883-1.049,1.041-1.8,1.414,1.323,2.02,1.171,3.114-.667.318-.2.41.105.535-.532.817-2.647-.71.052,1.838.853.471.127,1,.178,1.619.634,2.129,1.128.664,2.556.519-3.193,1.4,2.847,4.283-2.786,3.732.634.168.584,1.255,1.4.891.2-.109.485.3.321.439-.528.018.419,1-.071,1.469-.186,1.01-1.212-.157-1.729.534-.271.675-1.378-.027-1.346.637.286.967-.942,1.845-1.726,2.151.327.735.337.755-.118,1.347-.634.651.428.6.386,1.2-.186,1.815,2.374.58,1.9,2.038.6.93.077,3.586-1,3.853-.389.255-1.16.2-.864.864.7,2.245-.08,1.115,1.383,2.795.38.673,2.027.378,2.706.723,2.686-1.337.8,5.1,3.487,2.722.227-.4.56-.2.912-.082-.278-1.057,1.189-1.233.978-.08-.084,1.883-2.788,2.863-.958,4.769.157.3.282.046.346-.143.643.7.121.98,1.364.353.641-.318.887,1.123,1.458-.089,1.023.337-.293,1.215.521,1.651.742.191.009,1.389.939,1.126.637-.159,1.169-.562,1.747.143.741-.073,2.054.976,2.311.057.195-.632.637-.762,1.265-.767,1.173-.423,1-.1,1.41.833,1.082-1.026,1.3-.386,2.236.237,1.319.33.091-1.171,2.456-.294,1.439-.482-.416.9.327,1.547.236-.1.093-.41.23-.421.744.087-.1-.864.675-.792.578.011-.195,1.132.607.782.452-.155.6.068.978-.205.178.162.162.7.548.548.48-.162.653.682,1.262.227-.387,1.09.457,1.1,1.067.667.109-.612-.757-.555-.808-1.085,1.1-.236.767-1.094.716-1.944a.006.006,0,0,0,0,0M22.053,38.05h0C22.053,38.057,22.05,38.056,22.053,38.05Zm17.53,9.108ZM56.763,23.1l-.007.005C56.753,23.1,56.756,23.094,56.763,23.1Zm-7.773-14.5c-.021-.021-.009-.025.014-.034C49,8.582,49,8.593,48.991,8.605ZM39.9,68.994a1.209,1.209,0,0,0,.161.007A.126.126,0,0,1,39.9,68.994ZM65.957,40.726a.366.366,0,0,1,.314.178A2.557,2.557,0,0,0,65.957,40.726Z" transform="translate(0 0)" fill-rule="evenodd" fill="url(#linear-gradient)"/>
  </g>
</svg>
