<svg xmlns="http://www.w3.org/2000/svg" xmlns:xlink="http://www.w3.org/1999/xlink" width="86.559" height="88.812" viewBox="0 0 86.559 88.812">
  <defs>
    <linearGradient id="linear-gradient" x1="0.5" x2="0.5" y2="0.722" gradientUnits="objectBoundingBox">
      <stop offset="0" stop-color="#57a639"/>
      <stop offset="1" stop-color="#0f4243"/>
    </linearGradient>
    <linearGradient id="linear-gradient-2" x2="0.5" y2="1" xlink:href="#linear-gradient"/>
  </defs>
  <g id="Waldkiefer" transform="translate(-0.007 0.003)">
    <path id="Path_60" data-name="Path 60" d="M216.941,289.239c2.668,4.481-2.872,9.913-7.3,7.123-3.266,2.677-8.673.094-8.527-4.187-3.322-3.283-1.612-5.3-4.317-4.647-8.165-.089-5.781-13.053,1.885-10.215a5.32,5.32,0,0,1,6.488-3.573,5.258,5.258,0,0,1,8.132-.263,5.3,5.3,0,0,1,7.321,4.889C219.676,282.464,223.243,287.407,216.941,289.239Z" transform="translate(-168.349 -237.821)" fill="url(#linear-gradient)"/>
    <g id="Group_71" data-name="Group 71" transform="translate(16.052 17.701)">
      <path id="Path_61" data-name="Path 61" d="M297.69,672.474c.069-.237.1-.482.15-.724A7.117,7.117,0,0,1,297.69,672.474Z" transform="translate(-279.431 -604.354)" fill="#9e4d23"/>
      <path id="Path_62" data-name="Path 62" d="M203.7,194.284c2.389-2.452,8.447-8.89,12.72-9.154,0,0-4.639-.324-11.323,6.536-1.914,2.006-11.321,6.457-13.818,8.505-4.559,3.763-3.929.253-4.018-4.252-1.445.763-1.1,4.9-.9,6.8.163.97-1.946,1.541-2.218,2.245-.582-4.285.315-6.813-.174-13.794-.242-7.477.953-6.92,2.193-12.072,1.184-2.625,6.554-7.906,7.11-10.626-13.659,12.724-9.1,21.009-12.073,37.488-.112-4.178-5.059-9.412-3.843-13.843a32.17,32.17,0,0,0,.949-10.477c2.448-5.547,1.35-12.542,1.272-16.936-1.539,3.053.206,11.283-1.646,14.617-.788-6.207-4.47-10.07-6.335-13.992-.125,2.4,4.35,9.242,4.963,11.848.607,4.669,1.251,8.536-.848,14.94a132.816,132.816,0,0,0-9.478-16.237c2.758,9.894,16.236,26.172,11.973,38.586,0,.623-4.377-3.562-6.137-5.038-2.2-1.844-8.773-4.655-11.749-7.384,1,3.2,7.221,6.283,11.024,9.08,2.957,2.176,7.971,7.388,8.157,13.219a48.561,48.561,0,0,1-.772,7.757c-.153,1.026-.97,3.005-.074,3.267,1.763.736,5.6.514,6.934-.35-.6-5.88-4.836-18.67-1.522-24.917,1.753-1.865,2.022-4.862,5.69-4.949,1.135-1.817-1.206-.584-1.923-.864,8.388-7.1,18.147-12.286,31.378-9.752,0,0-8.58-2.519-15.514-.25Z" transform="translate(-160.32 -164.7)" fill="#622f23"/>
    </g>
    <path id="Path_63" data-name="Path 63" d="M509.693,225.038a7.137,7.137,0,0,1-3.891,6.385,7.2,7.2,0,0,1-6.385,7.358c-3.954,8.749-17.536,1.869-12.845-6.485-4.352-1.5-6.122-7.5-3.144-11.024,1.018-.835.867-1.687.848-2.919.306-5.2,6.736-8.331,11.026-5.362,4.118-4.805,12.767-1.6,12.521,4.863-.831,2.754,2.163,4.17,1.871,7.183Z" transform="translate(-423.149 -184.609)" fill="url(#linear-gradient-2)"/>
    <path id="Path_64" data-name="Path 64" d="M73.088,20.7a6.235,6.235,0,0,1-2.517,6.884c.339,2.8-1.551,4.442-.582,7.159.176,5.179-6.275,8.026-9.554,4.289a5.48,5.48,0,0,1-7.97-2.294,5.392,5.392,0,0,1-8.39-.4,5.331,5.331,0,0,1-3.961,1.77c-4.817-.407-3.082-3.237-8.738-4.664a5.586,5.586,0,0,1-4.916,3.117c-1.942.58-2.669,4.332-6.059,3.891-1.378,1.719-2.534,5.669-6.082,5.264-2.623-.42-2.394,4.865-6.827,4.416-3.93.093-6.737-4.479-5.2-8.256-4.87-4.631-1.118-9.952,3.379-11.323C5.764,26.332,9.03,26.7,7.49,22.422c-.1-5.6,4.78-4.474,5.151-7.458.719-3.853,5.407-5.876,8.458-3.617a5.517,5.517,0,0,1,2.68-2.02A5.75,5.75,0,0,1,29.3,4.387a5.517,5.517,0,0,1,4.637,2.618C37.822,5.056,37.756.1,42.561,0c3.56-.048,6.322,3.7,5.476,7.358,1.874.59,2.341,2.731,4.264,1.3A5.327,5.327,0,0,1,57.358,9.8a5.5,5.5,0,0,1,4.73-2.794,5.662,5.662,0,0,1,5.2,3.742c5.428-2.29,10.148,5.754,5.8,9.952Z" transform="translate(0 0)" fill="url(#linear-gradient-2)"/>
    <path id="Path_65" data-name="Path 65" d="M21.841,301.7a7.068,7.068,0,0,0-1.7,7.206,7.134,7.134,0,0,0-.621,9.627c-3.3,8.916,11.056,13.516,13.563,4.366,4.109,1.971,9.53-1.023,9.884-5.581-.137-1.3.564-1.792,1.433-2.646,3.4-3.877,1.049-10.556-4.038-11.448.441-6.25-7.886-10.006-12.206-5.284-1.331,2.519-4.425,1.433-6.316,3.76Z" transform="translate(-15.55 -259.201)" fill="url(#linear-gradient-2)"/>
  </g>
</svg>
