<svg xmlns="http://www.w3.org/2000/svg" width="49.591" height="88.812" viewBox="0 0 49.591 88.812">
  <g id="Weißtanne" transform="translate(0.03 -0.01)">
    <path id="Path_55" data-name="Path 55" d="M243.22,811.64h3.261v7.817a.5.5,0,0,1-.5.5h-2.269a.5.5,0,0,1-.5-.5V811.64Z" transform="translate(-219.124 -731.13)" fill="#cdc1c1"/>
    <path id="Path_56" data-name="Path 56" d="M19.942,12.457c0-.929,2.07-2.678,2.874-5.305.894-2.919.111-6.259.878-7.142.919,1.739.225,5.128,1.2,8.453,1,3.428,2.507,3.745,3.371,6.581-1.356-.1-1.783-.472-2.749-.3.781,1.614,6.079,4.463,6.2,6.108-1.881-.281-3.5.321-4.36-.134.836,1.444,3.943,2.9,4.291,4.4-1.5.093-1.825-.214-3.9-.281,1.5,1.551,5.294,4.428,5.781,6.608-1.979.161-3.246-.388-4.806-.227,1.825,2.167,5.977,3.652,7.021,6.273-2.15.526-4.974-.579-6.794-.348,2.545,2.212,9.436,3.656,10.421,6.706-3.009.375-6-1.587-8.619-.8,5.294,3.942,12.018,5.421,12.241,7.437-2.545.393-3.659-.838-6.112-.731,1.022.91,2.266,1.533,2.229,2.318-3.808.125-6.223-2.961-8.917-2.782,3.418,4.067,12.752,7.544,13.337,11.128-3.4.615-9.473-1.658-11.368-1.2,2.48,3.558,14.127,5.886,14.823,11.85-1.979.107-3.79-1.311-4.765-1.043.668.749.362,1.592.71,1.806-1.24-.066-3.413-2.287-5.865-1.806,1.783,3.112,10.616,4.307,12.5,8.066-1.834.236-5.271-.834-7.369-.459.445.7-.279,2.461.037,3.193-2.1-.232-3.009-3.584-5.944-3.442,1.43,2.8,4.384,4.53,4.291,6.563-2.433-.125-3.084-1.142-5.052-.677.2.713-.594,1.765-.2,2.3-3.307-.82-5.09-5.636-6.725-6.117-.26,1-.464,2.568-1.8,2.853-.334-.5-.019-.82-.706-1.516-1.616,1.462-3.418,4.762-6.2,4.655-.3-1.3,1-2.336.836-3.817-4.068.624-5.5,3.745-9.381,3.442.353-2.818,3.845-3.62,3.771-5.707-4.086,1.712-6.687,3.959-10.328,3.193,1.56-4.4,6.39-4.12,7.821-6.777-2.86.018-5.182,2.123-7.5,1.569a3.9,3.9,0,0,0,1.579-1.944c-1.56,0-5.163,2.015-6.706,1.6,4.068-6.99,13.857-6.206,13.746-9.826-1.95-.018-5.61,2.23-6.891,1.944.3-.179,1.226-.731.928-1.5-1.152.357-3.845,2.087-5.22,1.587C4.706,64.517,16.464,59.1,16.668,57.686c-5.294.054-8.777,4.548-15.91,3.023,3.678-5.189,14.963-8.186,15.659-11.343-1.95-.481-5.21,1.338-6.493.561,2.9-4.04,8.581-4.174,8.832-6.581-3.455-.561-6.993,3.1-12.511,2.568,1.643-3.424,9.613-5.752,10.309-7.838-1.643-.642-4.152,1.365-6.687.776,1.616-4.36,10.115-4.467,10.477-8.319-3.12.08-4.235,2.114-6.8,1.5,1.115-1.873,5.405-3.5,5.517-5.243-1.226.268-1.56.682-2.493.481.306-2.314,5.392-5.1,5.461-6.032-1.8-.054-4.249,1.524-6.157,1.11.933-3.825,5.921-4.6,6.283-7.971-.906.161-1.017-.027-1.839.161.111-1.083,1.435-1.645,1.309-2.635-.753-.066-1.013.42-1.69.557Z" transform="translate(0 0)" fill="#323d2d"/>
  </g>
</svg>
